<?xml version="1.0" encoding="UTF-8"?>
<svg id="Layer_2" data-name="Layer 2" xmlns="http://www.w3.org/2000/svg" viewBox="0 0 209.79 117.72">
  <defs>
    <style>
      .cls-1 {
        fill: #f15a29;
      }
    </style>
  </defs>
  <g id="Layer_1-2" data-name="Layer 1">
    <g>
      <g>
        <path class="cls-1" d="M41.64,88.38l-1.67-2.34c-.22.03-.44.05-.68.05h-2v2.29h-.51v-7h2.51c1.76,0,2.82.88,2.82,2.36,0,1.11-.6,1.88-1.64,2.19l1.75,2.45h-.58ZM39.29,85.65c1.5,0,2.3-.7,2.3-1.9s-.8-1.9-2.3-1.9h-2v3.8h2Z"/>
        <path class="cls-1" d="M49.01,87.92v.46h-4.83v-7h4.68v.46h-4.17v2.76h3.73v.45h-3.73v2.87h4.32Z"/>
        <path class="cls-1" d="M50.36,87.49l.23-.38c.48.5,1.37.88,2.31.88,1.4,0,2.02-.61,2.02-1.37,0-2.1-4.37-.84-4.37-3.42,0-.99.76-1.86,2.48-1.86.77,0,1.57.24,2.11.63l-.19.41c-.58-.4-1.29-.59-1.92-.59-1.36,0-1.97.63-1.97,1.4,0,2.1,4.37.86,4.37,3.4,0,.99-.79,1.85-2.52,1.85-1.04,0-2.04-.39-2.55-.95Z"/>
        <path class="cls-1" d="M62.18,87.92v.46h-4.83v-7h4.68v.46h-4.17v2.76h3.73v.45h-3.73v2.87h4.32Z"/>
        <path class="cls-1" d="M68.57,86.42h-4.06l-.89,1.97h-.55l3.22-7h.51l3.22,7h-.55l-.9-1.97ZM68.38,85.99l-1.84-4.04-1.83,4.04h3.67Z"/>
        <path class="cls-1" d="M76.35,88.38l-1.67-2.34c-.22.03-.44.05-.68.05h-2v2.29h-.51v-7h2.51c1.76,0,2.82.88,2.82,2.36,0,1.11-.6,1.88-1.64,2.19l1.75,2.45h-.58ZM74,85.65c1.5,0,2.3-.7,2.3-1.9s-.8-1.9-2.3-1.9h-2v3.8h2Z"/>
        <path class="cls-1" d="M78.23,84.89c0-2.04,1.55-3.55,3.63-3.55.99,0,1.88.32,2.49.97l-.32.33c-.6-.59-1.33-.83-2.15-.83-1.79,0-3.14,1.32-3.14,3.08s1.35,3.08,3.14,3.08c.82,0,1.55-.25,2.15-.84l.32.33c-.61.65-1.5.98-2.49.98-2.08,0-3.63-1.51-3.63-3.55Z"/>
        <path class="cls-1" d="M91.95,81.39v7h-.51v-3.33h-4.68v3.33h-.51v-7h.51v3.22h4.68v-3.22h.51Z"/>
        <path class="cls-1" d="M103.98,88.38v-5.99s-2.94,5.06-2.94,5.06h-.25l-2.93-5.04v5.97h-.5v-7h.43l3.13,5.41,3.13-5.41h.42v7s-.49,0-.49,0Z"/>
        <path class="cls-1" d="M111.95,87.92v.46h-4.83v-7h4.68v.46h-4.17v2.76h3.73v.45h-3.73v2.87h4.32Z"/>
        <path class="cls-1" d="M114.02,81.39h2.77c2.22,0,3.72,1.46,3.72,3.5s-1.5,3.5-3.72,3.5h-2.77v-7ZM116.75,87.92c1.98,0,3.25-1.26,3.25-3.04s-1.27-3.04-3.25-3.04h-2.22v6.08h2.22Z"/>
        <path class="cls-1" d="M122.48,81.39h.51v7h-.51v-7Z"/>
        <path class="cls-1" d="M129.95,86.42h-4.06l-.89,1.97h-.55l3.22-7h.51l3.22,7h-.55l-.9-1.97ZM129.76,85.99l-1.84-4.04-1.83,4.04h3.67Z"/>
        <path class="cls-1" d="M140.97,83.75c0,1.47-1.06,2.35-2.82,2.35h-2v2.29h-.51v-7h2.51c1.76,0,2.82.88,2.82,2.36ZM140.45,83.75c0-1.21-.8-1.9-2.3-1.9h-2v3.79h2c1.5,0,2.3-.69,2.3-1.89Z"/>
        <path class="cls-1" d="M147.75,88.38l-1.67-2.34c-.22.03-.44.05-.68.05h-2v2.29h-.51v-7h2.51c1.76,0,2.82.88,2.82,2.36,0,1.11-.6,1.88-1.64,2.19l1.75,2.45h-.58ZM145.41,85.65c1.5,0,2.3-.7,2.3-1.9s-.8-1.9-2.3-1.9h-2v3.8h2Z"/>
        <path class="cls-1" d="M149.63,84.89c0-2.03,1.55-3.55,3.64-3.55s3.64,1.51,3.64,3.55-1.56,3.55-3.64,3.55-3.64-1.52-3.64-3.55ZM156.38,84.89c0-1.77-1.34-3.08-3.12-3.08s-3.13,1.31-3.13,3.08,1.34,3.08,3.13,3.08,3.12-1.31,3.12-3.08Z"/>
        <path class="cls-1" d="M158.88,81.39h2.77c2.22,0,3.72,1.46,3.72,3.5s-1.5,3.5-3.72,3.5h-2.77v-7ZM161.61,87.92c1.98,0,3.25-1.26,3.25-3.04s-1.27-3.04-3.25-3.04h-2.22v6.08h2.22Z"/>
        <path class="cls-1" d="M167.28,85.42v-4.03h.51v4.01c0,1.75.84,2.57,2.3,2.57s2.29-.82,2.29-2.57v-4.01h.51v4.03c0,2-1.07,3.02-2.81,3.02s-2.8-1.02-2.8-3.02Z"/>
        <path class="cls-1" d="M174.8,84.89c0-2.04,1.55-3.55,3.63-3.55.99,0,1.88.32,2.49.97l-.32.33c-.6-.59-1.33-.83-2.15-.83-1.79,0-3.14,1.32-3.14,3.08s1.35,3.08,3.14,3.08c.82,0,1.55-.25,2.15-.84l.32.33c-.61.65-1.5.98-2.49.98-2.08,0-3.63-1.51-3.63-3.55Z"/>
        <path class="cls-1" d="M184.08,81.85h-2.52v-.46h5.55v.46h-2.52v6.54h-.51v-6.54Z"/>
        <path class="cls-1" d="M188.57,81.39h.51v7h-.51v-7Z"/>
        <path class="cls-1" d="M191.05,84.89c0-2.03,1.55-3.55,3.64-3.55s3.64,1.51,3.64,3.55-1.56,3.55-3.64,3.55-3.64-1.52-3.64-3.55ZM197.8,84.89c0-1.77-1.34-3.08-3.12-3.08s-3.13,1.31-3.13,3.08,1.34,3.08,3.13,3.08,3.12-1.31,3.12-3.08Z"/>
        <path class="cls-1" d="M205.99,81.39v7h-.42l-4.77-6.08v6.08h-.51v-7h.43l4.76,6.08v-6.08h.51Z"/>
      </g>
      <g>
        <path class="cls-1" d="M36.04,33.48h9.72v34.08h21.06v7.92h-30.78v-42Z"/>
        <path class="cls-1" d="M104.13,43.2v32.28h-8.94v-3.72c-2.34,2.82-5.76,4.2-10.08,4.2-9.12,0-16.14-6.48-16.14-16.62s7.02-16.62,16.14-16.62c3.96,0,7.32,1.26,9.66,3.9v-3.42h9.36ZM94.96,59.34c0-5.58-3.6-8.94-8.22-8.94s-8.28,3.36-8.28,8.94,3.6,8.94,8.28,8.94,8.22-3.36,8.22-8.94Z"/>
        <path class="cls-1" d="M151.95,64.02c0,7.26-5.76,11.46-16.8,11.46h-21.72v-42h20.52c10.5,0,15.9,4.38,15.9,10.92,0,4.2-2.16,7.44-5.58,9.24,4.68,1.5,7.68,5.1,7.68,10.38ZM123.1,40.8v9.9h9.66c4.74,0,7.32-1.68,7.32-4.98s-2.58-4.92-7.32-4.92h-9.66ZM142.17,63c0-3.54-2.7-5.22-7.74-5.22h-11.34v10.38h11.34c5.04,0,7.74-1.56,7.74-5.16Z"/>
        <path class="cls-1" d="M157.54,33.48c0-2.94,2.34-5.22,5.82-5.22s5.82,2.16,5.82,5.04c0,3.12-2.34,5.4-5.82,5.4s-5.82-2.28-5.82-5.22ZM158.68,43.2h9.36v32.28h-9.36v-32.28Z"/>
        <path class="cls-1" d="M174.34,59.34c0-9.72,7.5-16.62,17.76-16.62s17.7,6.9,17.7,16.62-7.44,16.62-17.7,16.62-17.76-6.9-17.76-16.62ZM200.31,59.34c0-5.58-3.54-8.94-8.22-8.94s-8.28,3.36-8.28,8.94,3.6,8.94,8.28,8.94,8.22-3.36,8.22-8.94Z"/>
      </g>
    </g>
    <g>
      <polygon class="cls-1" points="88.06 28.26 85.06 28.26 85.06 10.74 10.73 10.74 10.73 28.26 7.73 28.26 7.73 7.74 88.06 7.74 88.06 28.26"/>
      <polygon class="cls-1" points="88.06 117.72 7.73 117.72 7.73 95.48 10.73 95.48 10.73 114.72 85.06 114.72 85.06 95.48 88.06 95.48 88.06 117.72"/>
      <path class="cls-1" d="M10.73,109.98H0V0h80.32v10.74H10.73v99.24ZM3,106.98h4.73V7.74h69.59V3H3v103.98Z"/>
    </g>
  </g>
</svg>