<?xml version="1.0" encoding="UTF-8"?>
<svg id="Layer_2" data-name="Layer 2" xmlns="http://www.w3.org/2000/svg" viewBox="0 0 187.68 231.52">
  <defs>
    <style>
      .cls-1 {
        fill-rule: evenodd;
      }

      .cls-1, .cls-2 {
        fill: #fff;
      }
    </style>
  </defs>
  <g id="Layer_1-2" data-name="Layer 1">
    <path class="cls-1" d="M168.94,153.45l-45.3-114.78-25.07,51.36-20.27-51.36-56.02,114.78c-1.62,2.92-2.36,3.89-3.57,5.82h9.64c.18-2.02.71-3.98,1.58-5.82l24.56-50.86h37.95l-24.82,50.86c-1.62,2.92-2.36,3.89-3.57,5.82h9.64c.18-2.02.71-3.98,1.58-5.82l20.38-42.19,16.41,42.19c.75,2.22.9,3.85.99,5.82h13.63c-1.2-1.84-2.07-3.32-3.08-5.82l-20.07-50.86h34.07l19.78,50.86c.75,2.22.9,3.85,1,5.82h13.63c-1.2-1.84-2.07-3.32-3.07-5.82M56.53,98.35l18.71-38.31,15.13,38.31h-33.83ZM101.86,98.35l18.71-38.31,15.13,38.31h-33.83ZM77.82,30.23c10.12,0,18.33-6.77,18.33-15.12S87.94,0,77.82,0s-18.33,6.77-18.33,15.12,8.21,15.12,18.33,15.12M77.96,2.98c5.6,0,10.14,5.32,10.14,11.89s-4.54,11.88-10.14,11.88-10.14-5.32-10.14-11.88,4.54-11.89,10.14-11.89"/>
    <path class="cls-2" d="M6.1,187.96l-1.91,6.3H0l7.13-22.24h5.18l7.23,22.24h-4.36l-2.01-6.3h-7.06ZM9.8,164.92c2.28,0,3.53,1.39,3.53,3.14s-1.39,3.07-3.56,3.07-3.6-1.39-3.6-3.07,1.32-3.14,3.6-3.14h.03ZM12.47,184.89l-1.75-5.48c-.43-1.35-.79-2.87-1.12-4.16h-.07c-.33,1.29-.66,2.84-1.06,4.16l-1.72,5.48h5.71ZM9.7,166.38c-.96,0-1.49.82-1.49,1.68,0,.79.59,1.58,1.52,1.58s1.55-.73,1.55-1.62-.59-1.65-1.55-1.65h-.03Z"/>
    <path class="cls-2" d="M22.02,170.8h4.06v9.6h.07c.99-1.55,2.74-2.57,5.15-2.57,3.93,0,6.73,3.27,6.7,8.15,0,5.78-3.66,8.65-7.29,8.65-2.08,0-3.93-.79-5.08-2.77h-.07l-.2,2.41h-3.46c.07-1.09.13-2.87.13-4.49v-18.98ZM26.08,187.63c0,.33.03.66.1.96.43,1.65,1.85,2.84,3.6,2.84,2.54,0,4.09-2.01,4.09-5.28,0-2.84-1.35-5.15-4.06-5.15-1.65,0-3.17,1.19-3.6,2.97-.07.3-.13.66-.13,1.06v2.61Z"/>
    <path class="cls-2" d="M48.17,194.62c-4.52,0-8.05-3.1-8.05-8.28s3.46-8.51,8.32-8.51,7.99,3.37,7.99,8.25c0,5.91-4.16,8.55-8.22,8.55h-.03ZM48.3,191.69c2.31,0,3.93-2.24,3.93-5.51,0-2.51-1.12-5.41-3.89-5.41s-4.03,2.81-4.03,5.48c0,3.1,1.55,5.44,3.96,5.44h.03Z"/>
    <path class="cls-2" d="M71.2,187.96l-1.91,6.3h-4.19l7.13-22.24h5.18l7.23,22.24h-4.36l-2.01-6.3h-7.06ZM77.57,184.89l-1.75-5.48c-.43-1.35-.79-2.87-1.12-4.16h-.07c-.33,1.29-.66,2.84-1.06,4.16l-1.72,5.48h5.71Z"/>
    <path class="cls-2" d="M91.11,185.25h.07c.4-.63.86-1.32,1.25-1.88l3.93-5.18h4.88l-5.97,6.57,6.8,9.5h-4.98l-4.62-7.09-1.35,1.62v5.48h-4.06v-23.46h4.06v14.45Z"/>
    <path class="cls-2" d="M116.16,190.4c0,1.45.07,2.87.26,3.86h-3.66l-.3-1.78h-.1c-.96,1.25-2.64,2.15-4.75,2.15-3.23,0-5.05-2.34-5.05-4.78,0-4.03,3.6-6.1,9.54-6.07v-.26c0-1.06-.43-2.81-3.27-2.81-1.58,0-3.23.5-4.32,1.19l-.79-2.64c1.19-.73,3.27-1.42,5.81-1.42,5.15,0,6.63,3.27,6.63,6.8v5.78ZM112.2,186.41c-2.87-.03-5.61.56-5.61,3,0,1.58,1.02,2.31,2.31,2.31,1.65,0,2.81-1.06,3.2-2.21.1-.3.1-.59.1-.89v-2.21Z"/>
    <path class="cls-2" d="M134.94,170.8v18.94c0,1.65.07,3.43.13,4.52h-3.6l-.2-2.54h-.07c-.96,1.78-2.9,2.9-5.21,2.9-3.86,0-6.9-3.27-6.9-8.22-.03-5.38,3.33-8.58,7.19-8.58,2.21,0,3.79.89,4.52,2.08h.07v-9.11h4.06ZM130.88,184.89c0-.33-.03-.76-.1-1.09-.36-1.55-1.65-2.84-3.5-2.84-2.61,0-4.06,2.31-4.06,5.28s1.45,5.11,4.03,5.11c1.65,0,3.1-1.12,3.5-2.87.1-.36.13-.76.13-1.19v-2.41Z"/>
    <path class="cls-2" d="M141.85,187.36c.1,2.9,2.38,4.16,4.95,4.16,1.88,0,3.2-.3,4.46-.73l.59,2.77c-1.39.59-3.3,1.02-5.61,1.02-5.21,0-8.28-3.2-8.28-8.12,0-4.45,2.71-8.65,7.85-8.65s6.93,4.29,6.93,7.82c0,.76-.07,1.35-.13,1.72h-10.76ZM148.91,184.53c.03-1.49-.63-3.93-3.33-3.93-2.51,0-3.56,2.28-3.73,3.93h7.06Z"/>
    <path class="cls-2" d="M155.79,182.97c0-1.85-.07-3.4-.13-4.78h3.46l.2,2.38h.1c.76-1.25,2.21-2.74,4.95-2.74,2.11,0,3.76,1.19,4.46,2.97h.07c.56-.89,1.22-1.55,1.95-2.01.92-.63,1.95-.96,3.3-.96,2.64,0,5.35,1.82,5.35,6.96v9.47h-3.96v-8.88c0-2.67-.92-4.26-2.87-4.26-1.39,0-2.41.99-2.84,2.15-.13.36-.2.89-.2,1.35v9.64h-3.96v-9.31c0-2.24-.89-3.83-2.77-3.83-1.52,0-2.54,1.19-2.94,2.28-.13.43-.2.89-.2,1.35v9.5h-3.96v-11.29Z"/>
    <path class="cls-2" d="M185.37,175.88c-1.35,0-2.24-.99-2.24-2.18,0-1.25.92-2.21,2.28-2.21s2.24.96,2.28,2.21c0,1.19-.89,2.18-2.28,2.18h-.03ZM183.36,178.19h4.06v16.07h-4.06v-16.07Z"/>
    <path class="cls-2" d="M29.73,202.02v12.97c0,4.36,1.81,6.37,4.55,6.37,2.94,0,4.69-2.01,4.69-6.37v-12.97h4.06v12.7c0,6.86-3.53,9.9-8.88,9.9s-8.48-2.87-8.48-9.87v-12.74h4.06Z"/>
    <path class="cls-2" d="M47.09,212.97c0-1.85-.07-3.4-.13-4.78h3.53l.2,2.41h.1c.73-1.25,2.47-2.77,5.15-2.77,2.81,0,5.71,1.81,5.71,6.9v9.54h-4.06v-9.07c0-2.31-.86-4.06-3.07-4.06-1.62,0-2.74,1.15-3.17,2.38-.13.33-.2.83-.2,1.29v9.47h-4.06v-11.29Z"/>
    <path class="cls-2" d="M67.55,205.88c-1.35,0-2.24-.99-2.24-2.18,0-1.25.92-2.21,2.28-2.21s2.24.96,2.28,2.21c0,1.19-.89,2.18-2.28,2.18h-.03ZM65.54,208.19h4.06v16.07h-4.06v-16.07Z"/>
    <path class="cls-2" d="M76.22,208.19l2.61,8.15c.46,1.42.79,2.71,1.09,4.03h.1c.3-1.32.66-2.57,1.09-4.03l2.57-8.15h4.26l-6.14,16.07h-3.99l-5.97-16.07h4.39Z"/>
    <path class="cls-2" d="M92.39,217.36c.1,2.9,2.38,4.16,4.95,4.16,1.88,0,3.2-.3,4.46-.73l.59,2.77c-1.39.59-3.3,1.02-5.61,1.02-5.21,0-8.28-3.2-8.28-8.12,0-4.46,2.71-8.65,7.85-8.65s6.93,4.29,6.93,7.82c0,.76-.07,1.35-.13,1.72h-10.76ZM99.46,214.53c.03-1.48-.63-3.93-3.33-3.93-2.51,0-3.56,2.28-3.73,3.93h7.06Z"/>
    <path class="cls-2" d="M106.33,213.37c0-2.18-.03-3.76-.13-5.18h3.5l.17,3.04h.1c.79-2.24,2.67-3.4,4.42-3.4.4,0,.63.03.96.1v3.79c-.36-.07-.73-.1-1.22-.1-1.91,0-3.27,1.22-3.63,3.07-.07.36-.1.79-.1,1.22v8.35h-4.06v-10.89Z"/>
    <path class="cls-2" d="M117.74,220.5c.89.56,2.64,1.19,4.09,1.19,1.78,0,2.57-.76,2.57-1.82s-.66-1.62-2.64-2.34c-3.13-1.06-4.42-2.77-4.42-4.69,0-2.84,2.34-5.02,6.07-5.02,1.78,0,3.33.43,4.29.96l-.82,2.84c-.66-.4-1.98-.92-3.4-.92s-2.24.73-2.24,1.72.76,1.49,2.8,2.24c2.94,1.02,4.26,2.51,4.29,4.88,0,2.94-2.28,5.05-6.53,5.05-1.95,0-3.7-.46-4.88-1.12l.82-2.97Z"/>
    <path class="cls-2" d="M133.29,205.88c-1.35,0-2.24-.99-2.24-2.18,0-1.25.93-2.21,2.28-2.21s2.24.96,2.28,2.21c0,1.19-.89,2.18-2.28,2.18h-.03ZM131.27,208.19h4.06v16.07h-4.06v-16.07Z"/>
    <path class="cls-2" d="M143.93,204.06v4.12h3.86v3.04h-3.86v7.06c0,1.98.53,2.97,2.08,2.97.73,0,1.12-.03,1.58-.17l.07,3.07c-.59.23-1.68.43-2.94.43-1.52,0-2.74-.49-3.5-1.32-.89-.92-1.29-2.41-1.29-4.52v-7.52h-2.28v-3.04h2.28v-3l3.99-1.12Z"/>
    <path class="cls-2" d="M153.83,208.19l2.87,8.61c.33.99.69,2.21.92,3.1h.1c.23-.89.53-2.11.86-3.14l2.51-8.58h4.32l-4.03,10.96c-2.21,6.01-3.7,8.68-5.58,10.33-1.62,1.39-3.27,1.91-4.26,2.05l-.92-3.4c.69-.16,1.52-.53,2.34-1.12.76-.49,1.68-1.45,2.24-2.54.13-.3.23-.53.23-.73,0-.16-.03-.4-.2-.79l-5.91-14.75h4.49Z"/>
  </g>
</svg>