<?xml version="1.0" encoding="UTF-8"?>
<svg id="Layer_2" data-name="Layer 2" xmlns="http://www.w3.org/2000/svg" xmlns:xlink="http://www.w3.org/1999/xlink" viewBox="0 0 341.71 113">
  <defs>
    <style>
      .cls-1 {
        letter-spacing: .16em;
      }

      .cls-2 {
        letter-spacing: .13em;
      }

      .cls-3 {
        letter-spacing: .13em;
      }

      .cls-4 {
        letter-spacing: .13em;
      }

      .cls-5 {
        letter-spacing: .13em;
      }

      .cls-6 {
        letter-spacing: .13em;
      }

      .cls-7 {
        letter-spacing: .13em;
      }

      .cls-8 {
        letter-spacing: .13em;
      }

      .cls-9 {
        letter-spacing: .13em;
      }

      .cls-10 {
        letter-spacing: .13em;
      }

      .cls-11 {
        letter-spacing: .15em;
      }

      .cls-12, .cls-13 {
        fill: #fff;
      }

      .cls-13 {
        font-family: AcuminConcept-SemiCondSemibold, 'Acumin Variable Concept';
        font-size: 10px;
        font-variation-settings: 'wght' 600, 'wdth' 90, 'slnt' 0;
        font-weight: 600;
      }

      .cls-14 {
        letter-spacing: .11em;
      }

      .cls-15 {
        letter-spacing: .12em;
      }

      .cls-16 {
        letter-spacing: .12em;
      }

      .cls-17 {
        letter-spacing: .12em;
      }

      .cls-18 {
        letter-spacing: .12em;
      }

      .cls-19 {
        letter-spacing: .12em;
      }

      .cls-20 {
        letter-spacing: .13em;
      }

      .cls-21 {
        letter-spacing: .13em;
      }

      .cls-22 {
        clip-path: url(#clippath);
      }
    </style>
    <clipPath id="clippath">
      <path class="cls-12" d="M7.36,5.12c0-1.3,1.05-2.35,2.35-2.35h10.95c5.75,0,8.25,3.11,8.25,6.87,0,1.7-.53,3.02-1.31,4s-.65,2.35.26,3.2c1.14,1.07,1.93,2.62,1.93,4.67,0,5.01-3.46,7.94-9.35,7.94h-10.74c-1.3,0-2.35-1.05-2.35-2.35V5.12ZM19.44,13.22c3.01,0,3.66-1.53,3.39-3.53-.16-1.17-1.15-2.06-2.34-2.06h-5.04c-1.3,0-2.35,1.05-2.35,2.35v.89c0,1.3,1.05,2.35,2.35,2.35h3.99ZM13.1,22.29c0,1.3,1.05,2.35,2.35,2.35h4.24c2.25,0,3.95-.73,3.95-3.37,0-2.13-1.3-3.23-3.84-3.23h-4.35c-1.3,0-2.35,1.05-2.35,2.35v1.9ZM41.95,5.12v21.99c0,1.3-1.05,2.35-2.35,2.35h-1.13c-1.3,0-2.35-1.05-2.35-2.35V5.12c0-1.3,1.05-2.35,2.35-2.35h1.13c1.3,0,2.35,1.05,2.35,2.35ZM74.26,16.02c0,7.4-4.44,14-13.19,14-8.15,0-12.81-6.19-12.81-13.98,0-7.34,4.93-13.85,13.08-13.85s12.92,6.54,12.92,13.82ZM54.42,15.97c0,5.05,2.3,9,6.99,9s6.71-4.53,6.71-8.87c0-4.73-2.08-8.84-6.94-8.84s-6.75,4.21-6.75,8.71ZM100.06,20.98c1.83,0,2.93,1.98,2.02,3.57-1.79,3.11-5.07,5.48-10.62,5.48-8.59,0-12.73-6.6-12.73-13.89s4.57-13.94,13.05-13.94c5.37,0,8.78,2.42,10.5,5.47.89,1.58-.22,3.54-2.03,3.54h-1.11c-.88,0-1.65-.51-2.08-1.27-.77-1.33-2.27-2.72-5.34-2.72-4.5,0-6.83,3.8-6.83,8.67s2.13,9.14,6.86,9.14c2.85,0,4.37-1.02,5.34-2.86.4-.76,1.23-1.19,2.08-1.19h.9ZM115.66,5.12v21.99c0,1.3-1.05,2.35-2.35,2.35h-1.13c-1.3,0-2.35-1.05-2.35-2.35V5.12c0-1.3,1.05-2.35,2.35-2.35h1.13c1.3,0,2.35,1.05,2.35,2.35ZM128.09,7.93h-3.76c-1.3,0-2.35-1.05-2.35-2.35v-.46c0-1.3,1.05-2.35,2.35-2.35h18.03c1.3,0,2.35,1.05,2.35,2.35v.46c0,1.3-1.05,2.35-2.35,2.35h-3.73c-1.3,0-2.35,1.05-2.35,2.35v16.83c0,1.3-1.05,2.35-2.35,2.35h-1.14c-1.3,0-2.35-1.05-2.35-2.35V10.28c0-1.3-1.05-2.35-2.35-2.35ZM160.9,29.46c-1.3,0-2.35-1.05-2.35-2.35v-7.2c0-.36-.1-.55-.3-.87l-7.76-12.7c-.96-1.57.17-3.57,2-3.57h1.37c.85,0,1.63.46,2.04,1.19,1.27,2.24,2.64,4.64,3.78,6.71.89,1.61,3.19,1.62,4.1.02,1.17-2.07,2.56-4.48,3.84-6.73.42-.74,1.2-1.19,2.04-1.19.25,0,.51,0,.79,0,1.84,0,2.96,2.01,2.01,3.58l-7.93,12.96c-.13.22-.14.37-.14.71v7.09c0,1.3-1.05,2.35-2.35,2.35h-1.16ZM200.23,7.93h-3.76c-1.3,0-2.35-1.05-2.35-2.35v-.46c0-1.3,1.05-2.35,2.35-2.35h18.03c1.3,0,2.35,1.05,2.35,2.35v.46c0,1.3-1.05,2.35-2.35,2.35h-3.73c-1.3,0-2.35,1.05-2.35,2.35v16.83c0,1.3-1.05,2.35-2.35,2.35h-1.14c-1.3,0-2.35-1.05-2.35-2.35V10.28c0-1.3-1.05-2.35-2.35-2.35ZM226.66,2.77c1.3,0,2.35,1.05,2.35,2.35v12.74c0,5.68,2.68,7.11,5.64,7.11,3.14,0,5.25-1.5,5.25-7.11V5.12c0-1.3,1.05-2.35,2.35-2.35h1.13c1.3,0,2.35,1.05,2.35,2.35v12.95c0,8.1-4.1,11.96-11.24,11.96s-11.31-3.53-11.31-11.81V5.12c0-1.3,1.05-2.35,2.35-2.35h1.13ZM258.59,21.52v5.58c0,1.3-1.05,2.35-2.35,2.35h-1.07c-1.3,0-2.35-1.05-2.35-2.35V5.12c0-1.3,1.05-2.35,2.35-2.35h10.74c5.54,0,8.72,3.03,8.72,7.62,0,2.12-.68,3.7-1.76,4.8-.83.85-.95,2.17-.21,3.09.74.92,1.35,2.36,1.35,4.7v1.33c0,.9,0,1.85.02,2.73.05,1.32-1.03,2.41-2.35,2.41h-1.39c-1.23,0-2.26-.95-2.35-2.18-.06-.89-.07-1.99-.07-3.41v-.88c0-2.7-.89-3.82-4.4-3.82h-2.53c-1.3,0-2.35,1.05-2.35,2.35ZM258.59,11.97c0,1.3,1.05,2.35,2.35,2.35h3.66c2.83,0,4.06-1.13,4.06-3.38,0-2.11-1.26-3.31-4.01-3.31h-3.71c-1.3,0-2.35,1.05-2.35,2.35v1.99ZM284.52,2.77h1.13c1.3,0,2.35,1.05,2.35,2.35v3.55c0,2.11,2.56,3.15,4.03,1.64,2-2.05,4.14-4.24,6.64-6.82.44-.46,1.06-.72,1.69-.72h.54c2.08,0,3.14,2.51,1.68,4l-5.91,6.02c-.83.84-.9,2.17-.17,3.1l7.66,9.77c1.21,1.54.11,3.8-1.85,3.8h-1.26c-.74,0-1.43-.34-1.87-.93l-6.56-8.65c-.84-1.11-2.45-1.25-3.47-.3l-.4.37c-.48.44-.75,1.07-.75,1.72v5.44c0,1.3-1.05,2.35-2.35,2.35h-1.13c-1.3,0-2.35-1.05-2.35-2.35V5.12c0-1.3,1.05-2.35,2.35-2.35ZM315.29,2.77c1.3,0,2.35,1.05,2.35,2.35v12.74c0,5.68,2.68,7.11,5.64,7.11,3.14,0,5.25-1.5,5.25-7.11V5.12c0-1.3,1.05-2.35,2.35-2.35h1.13c1.3,0,2.35,1.05,2.35,2.35v12.95c0,8.1-4.1,11.96-11.24,11.96s-11.31-3.53-11.31-11.81V5.12c0-1.3,1.05-2.35,2.35-2.35h1.13ZM7.36,39.27c0-1.3,1.05-2.35,2.35-2.35h10.95c5.75,0,8.25,3.11,8.25,6.87,0,1.7-.53,3.02-1.31,4-.78.97-.65,2.35.26,3.2,1.14,1.07,1.93,2.62,1.93,4.67,0,5.01-3.46,7.94-9.35,7.94h-10.74c-1.3,0-2.35-1.05-2.35-2.35v-21.99ZM19.44,47.36c3.01,0,3.66-1.53,3.39-3.53-.16-1.17-1.15-2.06-2.34-2.06h-5.04c-1.3,0-2.35,1.05-2.35,2.35v.89c0,1.3,1.05,2.35,2.35,2.35h3.99ZM13.1,56.44c0,1.3,1.05,2.35,2.35,2.35h4.24c2.25,0,3.95-.73,3.95-3.37,0-2.13-1.3-3.23-3.84-3.23h-4.35c-1.3,0-2.35,1.05-2.35,2.35v1.9ZM41.95,39.27v21.99c0,1.3-1.05,2.35-2.35,2.35h-1.13c-1.3,0-2.35-1.05-2.35-2.35v-21.99c0-1.3,1.05-2.35,2.35-2.35h1.13c1.3,0,2.35,1.05,2.35,2.35ZM74.26,50.17c0,7.4-4.44,14-13.19,14-8.15,0-12.81-6.19-12.81-13.98,0-7.34,4.93-13.85,13.08-13.85s12.92,6.54,12.92,13.82ZM54.42,50.12c0,5.05,2.3,9,6.99,9s6.71-4.53,6.71-8.87c0-4.73-2.08-8.84-6.94-8.84s-6.75,4.21-6.75,8.71ZM100.06,55.13c1.83,0,2.93,1.98,2.02,3.57-1.79,3.11-5.07,5.48-10.62,5.48-8.59,0-12.73-6.6-12.73-13.89s4.57-13.94,13.05-13.94c5.37,0,8.78,2.42,10.5,5.47.89,1.58-.22,3.54-2.03,3.54h-1.11c-.88,0-1.65-.51-2.08-1.27-.77-1.33-2.27-2.72-5.34-2.72-4.5,0-6.83,3.8-6.83,8.67s2.13,9.14,6.86,9.14c2.85,0,4.37-1.02,5.34-2.86.4-.76,1.23-1.19,2.08-1.19h.9ZM115.66,39.27v21.99c0,1.3-1.05,2.35-2.35,2.35h-1.13c-1.3,0-2.35-1.05-2.35-2.35v-21.99c0-1.3,1.05-2.35,2.35-2.35h1.13c1.3,0,2.35,1.05,2.35,2.35ZM128.09,42.07h-3.76c-1.3,0-2.35-1.05-2.35-2.35v-.46c0-1.3,1.05-2.35,2.35-2.35h18.03c1.3,0,2.35,1.05,2.35,2.35v.46c0,1.3-1.05,2.35-2.35,2.35h-3.73c-1.3,0-2.35,1.05-2.35,2.35v16.83c0,1.3-1.05,2.35-2.35,2.35h-1.14c-1.3,0-2.35-1.05-2.35-2.35v-16.83c0-1.3-1.05-2.35-2.35-2.35ZM160.9,63.6c-1.3,0-2.35-1.05-2.35-2.35v-7.2c0-.36-.1-.55-.3-.87l-7.76-12.7c-.96-1.57.17-3.57,2-3.57h1.37c.85,0,1.63.46,2.04,1.19,1.27,2.24,2.64,4.64,3.78,6.71.89,1.61,3.19,1.62,4.1.02,1.17-2.07,2.56-4.48,3.84-6.73.42-.74,1.2-1.19,2.04-1.19.25,0,.51,0,.79,0,1.84,0,2.96,2.01,2.01,3.58l-7.93,12.96c-.13.22-.14.37-.14.71v7.09c0,1.3-1.05,2.35-2.35,2.35h-1.16ZM200.23,42.07h-3.76c-1.3,0-2.35-1.05-2.35-2.35v-.46c0-1.3,1.05-2.35,2.35-2.35h18.03c1.3,0,2.35,1.05,2.35,2.35v.46c0,1.3-1.05,2.35-2.35,2.35h-3.73c-1.3,0-2.35,1.05-2.35,2.35v16.83c0,1.3-1.05,2.35-2.35,2.35h-1.14c-1.3,0-2.35-1.05-2.35-2.35v-16.83c0-1.3-1.05-2.35-2.35-2.35ZM226.66,36.92c1.3,0,2.35,1.05,2.35,2.35v12.74c0,5.68,2.68,7.11,5.64,7.11,3.14,0,5.25-1.5,5.25-7.11v-12.74c0-1.3,1.05-2.35,2.35-2.35h1.13c1.3,0,2.35,1.05,2.35,2.35v12.95c0,8.1-4.1,11.96-11.24,11.96s-11.31-3.53-11.31-11.81v-13.09c0-1.3,1.05-2.35,2.35-2.35h1.13ZM258.59,55.67v5.58c0,1.3-1.05,2.35-2.35,2.35h-1.07c-1.3,0-2.35-1.05-2.35-2.35v-21.99c0-1.3,1.05-2.35,2.35-2.35h10.74c5.54,0,8.72,3.03,8.72,7.62,0,2.12-.68,3.7-1.76,4.8-.83.85-.95,2.17-.21,3.09.74.92,1.35,2.36,1.35,4.7v1.33c0,.9,0,1.85.02,2.73.05,1.32-1.03,2.41-2.35,2.41h-1.39c-1.23,0-2.26-.95-2.35-2.18-.06-.89-.07-1.99-.07-3.41v-.88c0-2.7-.89-3.82-4.4-3.82h-2.53c-1.3,0-2.35,1.05-2.35,2.35ZM258.59,46.11c0,1.3,1.05,2.35,2.35,2.35h3.66c2.83,0,4.06-1.13,4.06-3.38,0-2.11-1.26-3.31-4.01-3.31h-3.71c-1.3,0-2.35,1.05-2.35,2.35v1.99ZM284.52,36.92h1.13c1.3,0,2.35,1.05,2.35,2.35v3.55c0,2.11,2.56,3.15,4.03,1.64,2-2.05,4.14-4.24,6.64-6.82.44-.46,1.06-.72,1.69-.72h.54c2.08,0,3.14,2.51,1.68,4l-5.91,6.02c-.83.84-.9,2.17-.17,3.1l7.66,9.77c1.21,1.54.11,3.8-1.85,3.8h-1.26c-.74,0-1.43-.34-1.87-.93l-6.56-8.65c-.84-1.11-2.45-1.25-3.47-.3l-.4.37c-.48.44-.75,1.07-.75,1.72v5.44c0,1.3-1.05,2.35-2.35,2.35h-1.13c-1.3,0-2.35-1.05-2.35-2.35v-21.99c0-1.3,1.05-2.35,2.35-2.35ZM315.29,36.92c1.3,0,2.35,1.05,2.35,2.35v12.74c0,5.68,2.68,7.11,5.64,7.11,3.14,0,5.25-1.5,5.25-7.11v-12.74c0-1.3,1.05-2.35,2.35-2.35h1.13c1.3,0,2.35,1.05,2.35,2.35v12.95c0,8.1-4.1,11.96-11.24,11.96s-11.31-3.53-11.31-11.81v-13.09c0-1.3,1.05-2.35,2.35-2.35h1.13ZM7.36,73.41c0-1.3,1.05-2.35,2.35-2.35h10.95c5.75,0,8.25,3.11,8.25,6.87,0,1.7-.53,3.02-1.31,4-.78.97-.65,2.35.26,3.2,1.14,1.07,1.93,2.62,1.93,4.67,0,5.01-3.46,7.94-9.35,7.94h-10.74c-1.3,0-2.35-1.05-2.35-2.35v-21.99ZM19.44,81.51c3.01,0,3.66-1.53,3.39-3.53-.16-1.17-1.15-2.06-2.34-2.06h-5.04c-1.3,0-2.35,1.05-2.35,2.35v.89c0,1.3,1.05,2.35,2.35,2.35h3.99ZM13.1,90.58c0,1.3,1.05,2.35,2.35,2.35h4.24c2.25,0,3.95-.73,3.95-3.37,0-2.13-1.3-3.23-3.84-3.23h-4.35c-1.3,0-2.35,1.05-2.35,2.35v1.9ZM41.95,73.41v21.99c0,1.3-1.05,2.35-2.35,2.35h-1.13c-1.3,0-2.35-1.05-2.35-2.35v-21.99c0-1.3,1.05-2.35,2.35-2.35h1.13c1.3,0,2.35,1.05,2.35,2.35ZM74.26,84.32c0,7.4-4.44,14-13.19,14-8.15,0-12.81-6.19-12.81-13.98,0-7.34,4.93-13.85,13.08-13.85s12.92,6.54,12.92,13.82ZM54.42,84.26c0,5.05,2.3,9,6.99,9s6.71-4.53,6.71-8.87c0-4.73-2.08-8.84-6.94-8.84s-6.75,4.21-6.75,8.71ZM100.06,89.28c1.83,0,2.93,1.98,2.02,3.57-1.79,3.11-5.07,5.48-10.62,5.48-8.59,0-12.73-6.6-12.73-13.89s4.57-13.94,13.05-13.94c5.37,0,8.78,2.42,10.5,5.47.89,1.58-.22,3.54-2.03,3.54h-1.11c-.88,0-1.65-.51-2.08-1.27-.77-1.33-2.27-2.72-5.34-2.72-4.5,0-6.83,3.8-6.83,8.67s2.13,9.14,6.86,9.14c2.85,0,4.37-1.02,5.34-2.86.4-.76,1.23-1.19,2.08-1.19h.9ZM115.66,73.41v21.99c0,1.3-1.05,2.35-2.35,2.35h-1.13c-1.3,0-2.35-1.05-2.35-2.35v-21.99c0-1.3,1.05-2.35,2.35-2.35h1.13c1.3,0,2.35,1.05,2.35,2.35ZM128.09,76.22h-3.76c-1.3,0-2.35-1.05-2.35-2.35v-.46c0-1.3,1.05-2.35,2.35-2.35h18.03c1.3,0,2.35,1.05,2.35,2.35v.46c0,1.3-1.05,2.35-2.35,2.35h-3.73c-1.3,0-2.35,1.05-2.35,2.35v16.83c0,1.3-1.05,2.35-2.35,2.35h-1.14c-1.3,0-2.35-1.05-2.35-2.35v-16.83c0-1.3-1.05-2.35-2.35-2.35ZM160.9,97.75c-1.3,0-2.35-1.05-2.35-2.35v-7.2c0-.36-.1-.55-.3-.87l-7.76-12.7c-.96-1.57.17-3.57,2-3.57h1.37c.85,0,1.63.46,2.04,1.19,1.27,2.24,2.64,4.64,3.78,6.71.89,1.61,3.19,1.62,4.1.02,1.17-2.07,2.56-4.48,3.84-6.73.42-.74,1.2-1.19,2.04-1.19.25,0,.51,0,.79,0,1.84,0,2.96,2.01,2.01,3.58l-7.93,12.96c-.13.22-.14.37-.14.71v7.09c0,1.3-1.05,2.35-2.35,2.35h-1.16ZM200.23,76.22h-3.76c-1.3,0-2.35-1.05-2.35-2.35v-.46c0-1.3,1.05-2.35,2.35-2.35h18.03c1.3,0,2.35,1.05,2.35,2.35v.46c0,1.3-1.05,2.35-2.35,2.35h-3.73c-1.3,0-2.35,1.05-2.35,2.35v16.83c0,1.3-1.05,2.35-2.35,2.35h-1.14c-1.3,0-2.35-1.05-2.35-2.35v-16.83c0-1.3-1.05-2.35-2.35-2.35ZM226.66,71.06c1.3,0,2.35,1.05,2.35,2.35v12.74c0,5.68,2.68,7.11,5.64,7.11,3.14,0,5.25-1.5,5.25-7.11v-12.74c0-1.3,1.05-2.35,2.35-2.35h1.13c1.3,0,2.35,1.05,2.35,2.35v12.95c0,8.1-4.1,11.96-11.24,11.96s-11.31-3.53-11.31-11.81v-13.09c0-1.3,1.05-2.35,2.35-2.35h1.13ZM258.59,89.82v5.58c0,1.3-1.05,2.35-2.35,2.35h-1.07c-1.3,0-2.35-1.05-2.35-2.35v-21.99c0-1.3,1.05-2.35,2.35-2.35h10.74c5.54,0,8.72,3.03,8.72,7.62,0,2.12-.68,3.7-1.76,4.8-.83.85-.95,2.17-.21,3.09s1.35,2.36,1.35,4.7v1.33c0,.9,0,1.85.02,2.73.05,1.32-1.03,2.41-2.35,2.41h-1.39c-1.23,0-2.26-.95-2.35-2.18-.06-.89-.07-1.99-.07-3.41v-.88c0-2.7-.89-3.82-4.4-3.82h-2.53c-1.3,0-2.35,1.05-2.35,2.35ZM258.59,80.26c0,1.3,1.05,2.35,2.35,2.35h3.66c2.83,0,4.06-1.13,4.06-3.38,0-2.11-1.26-3.31-4.01-3.31h-3.71c-1.3,0-2.35,1.05-2.35,2.35v1.99ZM284.52,71.06h1.13c1.3,0,2.35,1.05,2.35,2.35v3.55c0,2.11,2.56,3.15,4.03,1.64,2-2.05,4.14-4.24,6.64-6.82.44-.46,1.06-.72,1.69-.72h.54c2.08,0,3.14,2.51,1.68,4l-5.91,6.02c-.83.84-.9,2.17-.17,3.1l7.66,9.77c1.21,1.54.11,3.8-1.85,3.8h-1.26c-.74,0-1.43-.34-1.87-.93l-6.56-8.65c-.84-1.11-2.45-1.25-3.47-.3l-.4.37c-.48.44-.75,1.07-.75,1.72v5.44c0,1.3-1.05,2.35-2.35,2.35h-1.13c-1.3,0-2.35-1.05-2.35-2.35v-21.99c0-1.3,1.05-2.35,2.35-2.35ZM315.29,71.06c1.3,0,2.35,1.05,2.35,2.35v12.74c0,5.68,2.68,7.11,5.64,7.11,3.14,0,5.25-1.5,5.25-7.11v-12.74c0-1.3,1.05-2.35,2.35-2.35h1.13c1.3,0,2.35,1.05,2.35,2.35v12.95c0,8.1-4.1,11.96-11.24,11.96s-11.31-3.53-11.31-11.81v-13.09c0-1.3,1.05-2.35,2.35-2.35h1.13Z"/>
    </clipPath>
  </defs>
  <g id="Layer_1-2" data-name="Layer 1">
    <g>
      <g>
        <path class="cls-12" d="M7.36,5.12c0-1.3,1.05-2.35,2.35-2.35h10.95c5.75,0,8.25,3.11,8.25,6.87,0,1.7-.53,3.02-1.31,4s-.65,2.35.26,3.2c1.14,1.07,1.93,2.62,1.93,4.67,0,5.01-3.46,7.94-9.35,7.94h-10.74c-1.3,0-2.35-1.05-2.35-2.35V5.12ZM19.44,13.22c3.01,0,3.66-1.53,3.39-3.53-.16-1.17-1.15-2.06-2.34-2.06h-5.04c-1.3,0-2.35,1.05-2.35,2.35v.89c0,1.3,1.05,2.35,2.35,2.35h3.99ZM13.1,22.29c0,1.3,1.05,2.35,2.35,2.35h4.24c2.25,0,3.95-.73,3.95-3.37,0-2.13-1.3-3.23-3.84-3.23h-4.35c-1.3,0-2.35,1.05-2.35,2.35v1.9ZM41.95,5.12v21.99c0,1.3-1.05,2.35-2.35,2.35h-1.13c-1.3,0-2.35-1.05-2.35-2.35V5.12c0-1.3,1.05-2.35,2.35-2.35h1.13c1.3,0,2.35,1.05,2.35,2.35ZM74.26,16.02c0,7.4-4.44,14-13.19,14-8.15,0-12.81-6.19-12.81-13.98,0-7.34,4.93-13.85,13.08-13.85s12.92,6.54,12.92,13.82ZM54.42,15.97c0,5.05,2.3,9,6.99,9s6.71-4.53,6.71-8.87c0-4.73-2.08-8.84-6.94-8.84s-6.75,4.21-6.75,8.71ZM100.06,20.98c1.83,0,2.93,1.98,2.02,3.57-1.79,3.11-5.07,5.48-10.62,5.48-8.59,0-12.73-6.6-12.73-13.89s4.57-13.94,13.05-13.94c5.37,0,8.78,2.42,10.5,5.47.89,1.58-.22,3.54-2.03,3.54h-1.11c-.88,0-1.65-.51-2.08-1.27-.77-1.33-2.27-2.72-5.34-2.72-4.5,0-6.83,3.8-6.83,8.67s2.13,9.14,6.86,9.14c2.85,0,4.37-1.02,5.34-2.86.4-.76,1.23-1.19,2.08-1.19h.9ZM115.66,5.12v21.99c0,1.3-1.05,2.35-2.35,2.35h-1.13c-1.3,0-2.35-1.05-2.35-2.35V5.12c0-1.3,1.05-2.35,2.35-2.35h1.13c1.3,0,2.35,1.05,2.35,2.35ZM128.09,7.93h-3.76c-1.3,0-2.35-1.05-2.35-2.35v-.46c0-1.3,1.05-2.35,2.35-2.35h18.03c1.3,0,2.35,1.05,2.35,2.35v.46c0,1.3-1.05,2.35-2.35,2.35h-3.73c-1.3,0-2.35,1.05-2.35,2.35v16.83c0,1.3-1.05,2.35-2.35,2.35h-1.14c-1.3,0-2.35-1.05-2.35-2.35V10.28c0-1.3-1.05-2.35-2.35-2.35ZM160.9,29.46c-1.3,0-2.35-1.05-2.35-2.35v-7.2c0-.36-.1-.55-.3-.87l-7.76-12.7c-.96-1.57.17-3.57,2-3.57h1.37c.85,0,1.63.46,2.04,1.19,1.27,2.24,2.64,4.64,3.78,6.71.89,1.61,3.19,1.62,4.1.02,1.17-2.07,2.56-4.48,3.84-6.73.42-.74,1.2-1.19,2.04-1.19.25,0,.51,0,.79,0,1.84,0,2.96,2.01,2.01,3.58l-7.93,12.96c-.13.22-.14.37-.14.71v7.09c0,1.3-1.05,2.35-2.35,2.35h-1.16ZM200.23,7.93h-3.76c-1.3,0-2.35-1.05-2.35-2.35v-.46c0-1.3,1.05-2.35,2.35-2.35h18.03c1.3,0,2.35,1.05,2.35,2.35v.46c0,1.3-1.05,2.35-2.35,2.35h-3.73c-1.3,0-2.35,1.05-2.35,2.35v16.83c0,1.3-1.05,2.35-2.35,2.35h-1.14c-1.3,0-2.35-1.05-2.35-2.35V10.28c0-1.3-1.05-2.35-2.35-2.35ZM226.66,2.77c1.3,0,2.35,1.05,2.35,2.35v12.74c0,5.68,2.68,7.11,5.64,7.11,3.14,0,5.25-1.5,5.25-7.11V5.12c0-1.3,1.05-2.35,2.35-2.35h1.13c1.3,0,2.35,1.05,2.35,2.35v12.95c0,8.1-4.1,11.96-11.24,11.96s-11.31-3.53-11.31-11.81V5.12c0-1.3,1.05-2.35,2.35-2.35h1.13ZM258.59,21.52v5.58c0,1.3-1.05,2.35-2.35,2.35h-1.07c-1.3,0-2.35-1.05-2.35-2.35V5.12c0-1.3,1.05-2.35,2.35-2.35h10.74c5.54,0,8.72,3.03,8.72,7.62,0,2.12-.68,3.7-1.76,4.8-.83.85-.95,2.17-.21,3.09.74.92,1.35,2.36,1.35,4.7v1.33c0,.9,0,1.85.02,2.73.05,1.32-1.03,2.41-2.35,2.41h-1.39c-1.23,0-2.26-.95-2.35-2.18-.06-.89-.07-1.99-.07-3.41v-.88c0-2.7-.89-3.82-4.4-3.82h-2.53c-1.3,0-2.35,1.05-2.35,2.35ZM258.59,11.97c0,1.3,1.05,2.35,2.35,2.35h3.66c2.83,0,4.06-1.13,4.06-3.38,0-2.11-1.26-3.31-4.01-3.31h-3.71c-1.3,0-2.35,1.05-2.35,2.35v1.99ZM284.52,2.77h1.13c1.3,0,2.35,1.05,2.35,2.35v3.55c0,2.11,2.56,3.15,4.03,1.64,2-2.05,4.14-4.24,6.64-6.82.44-.46,1.06-.72,1.69-.72h.54c2.08,0,3.14,2.51,1.68,4l-5.91,6.02c-.83.84-.9,2.17-.17,3.1l7.66,9.77c1.21,1.54.11,3.8-1.85,3.8h-1.26c-.74,0-1.43-.34-1.87-.93l-6.56-8.65c-.84-1.11-2.45-1.25-3.47-.3l-.4.37c-.48.44-.75,1.07-.75,1.72v5.44c0,1.3-1.05,2.35-2.35,2.35h-1.13c-1.3,0-2.35-1.05-2.35-2.35V5.12c0-1.3,1.05-2.35,2.35-2.35ZM315.29,2.77c1.3,0,2.35,1.05,2.35,2.35v12.74c0,5.68,2.68,7.11,5.64,7.11,3.14,0,5.25-1.5,5.25-7.11V5.12c0-1.3,1.05-2.35,2.35-2.35h1.13c1.3,0,2.35,1.05,2.35,2.35v12.95c0,8.1-4.1,11.96-11.24,11.96s-11.31-3.53-11.31-11.81V5.12c0-1.3,1.05-2.35,2.35-2.35h1.13ZM7.36,39.27c0-1.3,1.05-2.35,2.35-2.35h10.95c5.75,0,8.25,3.11,8.25,6.87,0,1.7-.53,3.02-1.31,4-.78.97-.65,2.35.26,3.2,1.14,1.07,1.93,2.62,1.93,4.67,0,5.01-3.46,7.94-9.35,7.94h-10.74c-1.3,0-2.35-1.05-2.35-2.35v-21.99ZM19.44,47.36c3.01,0,3.66-1.53,3.39-3.53-.16-1.17-1.15-2.06-2.34-2.06h-5.04c-1.3,0-2.35,1.05-2.35,2.35v.89c0,1.3,1.05,2.35,2.35,2.35h3.99ZM13.1,56.44c0,1.3,1.05,2.35,2.35,2.35h4.24c2.25,0,3.95-.73,3.95-3.37,0-2.13-1.3-3.23-3.84-3.23h-4.35c-1.3,0-2.35,1.05-2.35,2.35v1.9ZM41.95,39.27v21.99c0,1.3-1.05,2.35-2.35,2.35h-1.13c-1.3,0-2.35-1.05-2.35-2.35v-21.99c0-1.3,1.05-2.35,2.35-2.35h1.13c1.3,0,2.35,1.05,2.35,2.35ZM74.26,50.17c0,7.4-4.44,14-13.19,14-8.15,0-12.81-6.19-12.81-13.98,0-7.34,4.93-13.85,13.08-13.85s12.92,6.54,12.92,13.82ZM54.42,50.12c0,5.05,2.3,9,6.99,9s6.71-4.53,6.71-8.87c0-4.73-2.08-8.84-6.94-8.84s-6.75,4.21-6.75,8.71ZM100.06,55.13c1.83,0,2.93,1.98,2.02,3.57-1.79,3.11-5.07,5.48-10.62,5.48-8.59,0-12.73-6.6-12.73-13.89s4.57-13.94,13.05-13.94c5.37,0,8.78,2.42,10.5,5.47.89,1.58-.22,3.54-2.03,3.54h-1.11c-.88,0-1.65-.51-2.08-1.27-.77-1.33-2.27-2.72-5.34-2.72-4.5,0-6.83,3.8-6.83,8.67s2.13,9.14,6.86,9.14c2.85,0,4.37-1.02,5.34-2.86.4-.76,1.23-1.19,2.08-1.19h.9ZM115.66,39.27v21.99c0,1.3-1.05,2.35-2.35,2.35h-1.13c-1.3,0-2.35-1.05-2.35-2.35v-21.99c0-1.3,1.05-2.35,2.35-2.35h1.13c1.3,0,2.35,1.05,2.35,2.35ZM128.09,42.07h-3.76c-1.3,0-2.35-1.05-2.35-2.35v-.46c0-1.3,1.05-2.35,2.35-2.35h18.03c1.3,0,2.35,1.05,2.35,2.35v.46c0,1.3-1.05,2.35-2.35,2.35h-3.73c-1.3,0-2.35,1.05-2.35,2.35v16.83c0,1.3-1.05,2.35-2.35,2.35h-1.14c-1.3,0-2.35-1.05-2.35-2.35v-16.83c0-1.3-1.05-2.35-2.35-2.35ZM160.9,63.6c-1.3,0-2.35-1.05-2.35-2.35v-7.2c0-.36-.1-.55-.3-.87l-7.76-12.7c-.96-1.57.17-3.57,2-3.57h1.37c.85,0,1.63.46,2.04,1.19,1.27,2.24,2.64,4.64,3.78,6.71.89,1.61,3.19,1.62,4.1.02,1.17-2.07,2.56-4.48,3.84-6.73.42-.74,1.2-1.19,2.04-1.19.25,0,.51,0,.79,0,1.84,0,2.96,2.01,2.01,3.58l-7.93,12.96c-.13.22-.14.37-.14.71v7.09c0,1.3-1.05,2.35-2.35,2.35h-1.16ZM200.23,42.07h-3.76c-1.3,0-2.35-1.05-2.35-2.35v-.46c0-1.3,1.05-2.35,2.35-2.35h18.03c1.3,0,2.35,1.05,2.35,2.35v.46c0,1.3-1.05,2.35-2.35,2.35h-3.73c-1.3,0-2.35,1.05-2.35,2.35v16.83c0,1.3-1.05,2.35-2.35,2.35h-1.14c-1.3,0-2.35-1.05-2.35-2.35v-16.83c0-1.3-1.05-2.35-2.35-2.35ZM226.66,36.92c1.3,0,2.35,1.05,2.35,2.35v12.74c0,5.68,2.68,7.11,5.64,7.11,3.14,0,5.25-1.5,5.25-7.11v-12.74c0-1.3,1.05-2.35,2.35-2.35h1.13c1.3,0,2.35,1.05,2.35,2.35v12.95c0,8.1-4.1,11.96-11.24,11.96s-11.31-3.53-11.31-11.81v-13.09c0-1.3,1.05-2.35,2.35-2.35h1.13ZM258.59,55.67v5.58c0,1.3-1.05,2.35-2.35,2.35h-1.07c-1.3,0-2.35-1.05-2.35-2.35v-21.99c0-1.3,1.05-2.35,2.35-2.35h10.74c5.54,0,8.72,3.03,8.72,7.62,0,2.12-.68,3.7-1.76,4.8-.83.85-.95,2.17-.21,3.09.74.92,1.35,2.36,1.35,4.7v1.33c0,.9,0,1.85.02,2.73.05,1.32-1.03,2.41-2.35,2.41h-1.39c-1.23,0-2.26-.95-2.35-2.18-.06-.89-.07-1.99-.07-3.41v-.88c0-2.7-.89-3.82-4.4-3.82h-2.53c-1.3,0-2.35,1.05-2.35,2.35ZM258.59,46.11c0,1.3,1.05,2.35,2.35,2.35h3.66c2.83,0,4.06-1.13,4.06-3.38,0-2.11-1.26-3.31-4.01-3.31h-3.71c-1.3,0-2.35,1.05-2.35,2.35v1.99ZM284.52,36.92h1.13c1.3,0,2.35,1.05,2.35,2.35v3.55c0,2.11,2.56,3.15,4.03,1.64,2-2.05,4.14-4.24,6.64-6.82.44-.46,1.06-.72,1.69-.72h.54c2.08,0,3.14,2.51,1.68,4l-5.91,6.02c-.83.84-.9,2.17-.17,3.1l7.66,9.77c1.21,1.54.11,3.8-1.85,3.8h-1.26c-.74,0-1.43-.34-1.87-.93l-6.56-8.65c-.84-1.11-2.45-1.25-3.47-.3l-.4.37c-.48.44-.75,1.07-.75,1.72v5.44c0,1.3-1.05,2.35-2.35,2.35h-1.13c-1.3,0-2.35-1.05-2.35-2.35v-21.99c0-1.3,1.05-2.35,2.35-2.35ZM315.29,36.92c1.3,0,2.35,1.05,2.35,2.35v12.74c0,5.68,2.68,7.11,5.64,7.11,3.14,0,5.25-1.5,5.25-7.11v-12.74c0-1.3,1.05-2.35,2.35-2.35h1.13c1.3,0,2.35,1.05,2.35,2.35v12.95c0,8.1-4.1,11.96-11.24,11.96s-11.31-3.53-11.31-11.81v-13.09c0-1.3,1.05-2.35,2.35-2.35h1.13ZM7.36,73.41c0-1.3,1.05-2.35,2.35-2.35h10.95c5.75,0,8.25,3.11,8.25,6.87,0,1.7-.53,3.02-1.31,4-.78.97-.65,2.35.26,3.2,1.14,1.07,1.93,2.62,1.93,4.67,0,5.01-3.46,7.94-9.35,7.94h-10.74c-1.3,0-2.35-1.05-2.35-2.35v-21.99ZM19.44,81.51c3.01,0,3.66-1.53,3.39-3.53-.16-1.17-1.15-2.06-2.34-2.06h-5.04c-1.3,0-2.35,1.05-2.35,2.35v.89c0,1.3,1.05,2.35,2.35,2.35h3.99ZM13.1,90.58c0,1.3,1.05,2.35,2.35,2.35h4.24c2.25,0,3.95-.73,3.95-3.37,0-2.13-1.3-3.23-3.84-3.23h-4.35c-1.3,0-2.35,1.05-2.35,2.35v1.9ZM41.95,73.41v21.99c0,1.3-1.05,2.35-2.35,2.35h-1.13c-1.3,0-2.35-1.05-2.35-2.35v-21.99c0-1.3,1.05-2.35,2.35-2.35h1.13c1.3,0,2.35,1.05,2.35,2.35ZM74.26,84.32c0,7.4-4.44,14-13.19,14-8.15,0-12.81-6.19-12.81-13.98,0-7.34,4.93-13.85,13.08-13.85s12.92,6.54,12.92,13.82ZM54.42,84.26c0,5.05,2.3,9,6.99,9s6.71-4.53,6.71-8.87c0-4.73-2.08-8.84-6.94-8.84s-6.75,4.21-6.75,8.71ZM100.06,89.28c1.83,0,2.93,1.98,2.02,3.57-1.79,3.11-5.07,5.48-10.62,5.48-8.59,0-12.73-6.6-12.73-13.89s4.57-13.94,13.05-13.94c5.37,0,8.78,2.42,10.5,5.47.89,1.58-.22,3.54-2.03,3.54h-1.11c-.88,0-1.65-.51-2.08-1.27-.77-1.33-2.27-2.72-5.34-2.72-4.5,0-6.83,3.8-6.83,8.67s2.13,9.14,6.86,9.14c2.85,0,4.37-1.02,5.34-2.86.4-.76,1.23-1.19,2.08-1.19h.9ZM115.66,73.41v21.99c0,1.3-1.05,2.35-2.35,2.35h-1.13c-1.3,0-2.35-1.05-2.35-2.35v-21.99c0-1.3,1.05-2.35,2.35-2.35h1.13c1.3,0,2.35,1.05,2.35,2.35ZM128.09,76.22h-3.76c-1.3,0-2.35-1.05-2.35-2.35v-.46c0-1.3,1.05-2.35,2.35-2.35h18.03c1.3,0,2.35,1.05,2.35,2.35v.46c0,1.3-1.05,2.35-2.35,2.35h-3.73c-1.3,0-2.35,1.05-2.35,2.35v16.83c0,1.3-1.05,2.35-2.35,2.35h-1.14c-1.3,0-2.35-1.05-2.35-2.35v-16.83c0-1.3-1.05-2.35-2.35-2.35ZM160.9,97.75c-1.3,0-2.35-1.05-2.35-2.35v-7.2c0-.36-.1-.55-.3-.87l-7.76-12.7c-.96-1.57.17-3.57,2-3.57h1.37c.85,0,1.63.46,2.04,1.19,1.27,2.24,2.64,4.64,3.78,6.71.89,1.61,3.19,1.62,4.1.02,1.17-2.07,2.56-4.48,3.84-6.73.42-.74,1.2-1.19,2.04-1.19.25,0,.51,0,.79,0,1.84,0,2.96,2.01,2.01,3.58l-7.93,12.96c-.13.22-.14.37-.14.71v7.09c0,1.3-1.05,2.35-2.35,2.35h-1.16ZM200.23,76.22h-3.76c-1.3,0-2.35-1.05-2.35-2.35v-.46c0-1.3,1.05-2.35,2.35-2.35h18.03c1.3,0,2.35,1.05,2.35,2.35v.46c0,1.3-1.05,2.35-2.35,2.35h-3.73c-1.3,0-2.35,1.05-2.35,2.35v16.83c0,1.3-1.05,2.35-2.35,2.35h-1.14c-1.3,0-2.35-1.05-2.35-2.35v-16.83c0-1.3-1.05-2.35-2.35-2.35ZM226.66,71.06c1.3,0,2.35,1.05,2.35,2.35v12.74c0,5.68,2.68,7.11,5.64,7.11,3.14,0,5.25-1.5,5.25-7.11v-12.74c0-1.3,1.05-2.35,2.35-2.35h1.13c1.3,0,2.35,1.05,2.35,2.35v12.95c0,8.1-4.1,11.96-11.24,11.96s-11.31-3.53-11.31-11.81v-13.09c0-1.3,1.05-2.35,2.35-2.35h1.13ZM258.59,89.82v5.58c0,1.3-1.05,2.35-2.35,2.35h-1.07c-1.3,0-2.35-1.05-2.35-2.35v-21.99c0-1.3,1.05-2.35,2.35-2.35h10.74c5.54,0,8.72,3.03,8.72,7.62,0,2.12-.68,3.7-1.76,4.8-.83.85-.95,2.17-.21,3.09s1.35,2.36,1.35,4.7v1.33c0,.9,0,1.85.02,2.73.05,1.32-1.03,2.41-2.35,2.41h-1.39c-1.23,0-2.26-.95-2.35-2.18-.06-.89-.07-1.99-.07-3.41v-.88c0-2.7-.89-3.82-4.4-3.82h-2.53c-1.3,0-2.35,1.05-2.35,2.35ZM258.59,80.26c0,1.3,1.05,2.35,2.35,2.35h3.66c2.83,0,4.06-1.13,4.06-3.38,0-2.11-1.26-3.31-4.01-3.31h-3.71c-1.3,0-2.35,1.05-2.35,2.35v1.99ZM284.52,71.06h1.13c1.3,0,2.35,1.05,2.35,2.35v3.55c0,2.11,2.56,3.15,4.03,1.64,2-2.05,4.14-4.24,6.64-6.82.44-.46,1.06-.72,1.69-.72h.54c2.08,0,3.14,2.51,1.68,4l-5.91,6.02c-.83.84-.9,2.17-.17,3.1l7.66,9.77c1.21,1.54.11,3.8-1.85,3.8h-1.26c-.74,0-1.43-.34-1.87-.93l-6.56-8.65c-.84-1.11-2.45-1.25-3.47-.3l-.4.37c-.48.44-.75,1.07-.75,1.72v5.44c0,1.3-1.05,2.35-2.35,2.35h-1.13c-1.3,0-2.35-1.05-2.35-2.35v-21.99c0-1.3,1.05-2.35,2.35-2.35ZM315.29,71.06c1.3,0,2.35,1.05,2.35,2.35v12.74c0,5.68,2.68,7.11,5.64,7.11,3.14,0,5.25-1.5,5.25-7.11v-12.74c0-1.3,1.05-2.35,2.35-2.35h1.13c1.3,0,2.35,1.05,2.35,2.35v12.95c0,8.1-4.1,11.96-11.24,11.96s-11.31-3.53-11.31-11.81v-13.09c0-1.3,1.05-2.35,2.35-2.35h1.13Z"/>
        <g class="cls-22">
          <rect class="cls-12" width="341.71" height="100.52"/>
        </g>
      </g>
      <text class="cls-13" transform="translate(7.36 110.38) scale(1.04 1)"><tspan class="cls-17" x="0" y="0">A</tspan><tspan class="cls-8" x="7.31" y="0">CA</tspan><tspan class="cls-2" x="22.42" y="0">D</tspan><tspan class="cls-19" x="30.47" y="0">E</tspan><tspan class="cls-4" x="37.29" y="0">MI</tspan><tspan class="cls-11" x="50.96" y="0">C</tspan><tspan class="cls-21" x="58.79" y="0"> </tspan><tspan class="cls-1" x="62.48" y="0">E</tspan><tspan class="cls-14" x="69.7" y="0">X</tspan><tspan class="cls-18" x="76.27" y="0">C</tspan><tspan class="cls-19" x="83.83" y="0">E</tspan><tspan class="cls-2" x="90.65" y="0">LL</tspan><tspan class="cls-19" x="103.73" y="0">E</tspan><tspan class="cls-3" x="110.55" y="0">N</tspan><tspan class="cls-16" x="118.78" y="0">C</tspan><tspan class="cls-6" x="126.34" y="0">E</tspan><tspan class="cls-21" x="133.21" y="0"> </tspan><tspan class="cls-3" x="136.9" y="0">I</tspan><tspan class="cls-21" x="140.99" y="0">N </tspan><tspan class="cls-2" x="152.84" y="0">L</tspan><tspan class="cls-4" x="159.38" y="0">I</tspan><tspan class="cls-15" x="163.47" y="0">F</tspan><tspan class="cls-5" x="170.02" y="0">E</tspan><tspan class="cls-20" x="176.89" y="0"> </tspan><tspan class="cls-10" x="180.58" y="0">S</tspan><tspan class="cls-18" x="187.52" y="0">C</tspan><tspan class="cls-4" x="195.08" y="0">I</tspan><tspan class="cls-19" x="199.17" y="0">E</tspan><tspan class="cls-3" x="205.99" y="0">N</tspan><tspan class="cls-18" x="214.22" y="0">C</tspan><tspan class="cls-6" x="221.78" y="0">E</tspan><tspan class="cls-21" x="228.65" y="0"> </tspan><tspan class="cls-7" x="232.34" y="0">A</tspan><tspan class="cls-3" x="239.77" y="0">N</tspan><tspan class="cls-9" x="248" y="0">D</tspan><tspan class="cls-21" x="256.04" y="0"> </tspan><tspan class="cls-4" x="259.73" y="0">M</tspan><tspan class="cls-19" x="269.3" y="0">E</tspan><tspan class="cls-2" x="276.12" y="0">D</tspan><tspan class="cls-4" x="284.17" y="0">I</tspan><tspan class="cls-18" x="288.26" y="0">C</tspan><tspan class="cls-3" x="295.82" y="0">IN</tspan><tspan class="cls-5" x="308.14" y="0">E</tspan></text>
    </g>
  </g>
</svg>