<?xml version="1.0" encoding="UTF-8"?>
<svg id="Layer_2" data-name="Layer 2" xmlns="http://www.w3.org/2000/svg" viewBox="0 0 394.51 64.45">
  <defs>
    <style>
      .cls-1 {
        fill: #1e1e1c;
      }

      .cls-2 {
        fill: #f29102;
      }

      .cls-3 {
        fill: #0273b0;
      }
    </style>
  </defs>
  <g id="Layer_1-2" data-name="Layer 1">
    <g>
      <path class="cls-2" d="M182.84,26.79c5.02,1.13,10.1,2.16,15.22,3.12l-2.05,4.36c-7.71-1.66-15.35-3.39-22.97-5.02-3.46-.73-6.9-1.45-10.34-2.13-8.01-1.57-16.06-2.97-24.17-3.97-1.63-.21-3.26-.39-4.9-.57-1.81-.19-3.64-.36-5.44-.48-8.08-.61-16.16-.65-24.17-.15-3.46.19-6.9.52-10.34.94-5.96.69-11.89,1.68-17.74,2.96-3.47.73-6.91,1.58-10.32,2.52-2.75.74-5.48,1.53-8.17,2.41-3.44,1.1-6.87,2.29-10.24,3.57-2.96,1.11-5.9,2.31-8.79,3.57-3.49,1.49-6.95,3.09-10.34,4.78-6.09,3.02-12.02,6.33-17.74,9.92C6.81,54.78,3.37,57.08,0,59.45c3.36-2.49,6.8-4.88,10.32-7.16,5.7-3.75,11.63-7.22,17.74-10.4,3.39-1.78,6.83-3.47,10.34-5.06,2.62-1.21,5.25-2.34,7.92-3.43,3.3-1.36,6.66-2.62,10.03-3.78,3.05-1.08,6.14-2.08,9.26-2.99,3.41-1.02,6.85-1.94,10.32-2.78,5.85-1.39,11.76-2.52,17.74-3.34,3.43-.5,6.88-.9,10.34-1.2,8-.68,16.08-.84,24.17-.44,1.99.08,3.99.23,5.99.39,1.45.11,2.89.23,4.35.37,8.11.78,16.16,1.97,24.17,3.38,3.46.58,6.9,1.21,10.34,1.87,3.28.61,6.54,1.26,9.81,1.89Z"/>
      <g>
        <rect class="cls-3" y="5.3" width="10.33" height="54.15"/>
        <polygon class="cls-3" points="65.61 39.32 28.07 0 28.07 59.45 38.41 59.45 38.41 25.13 75.94 64.45 75.94 5.3 65.61 5.3 65.61 39.32"/>
        <rect class="cls-3" x="93.68" y="5.3" width="10.33" height="54.15"/>
        <polygon class="cls-3" points="116.32 15.17 128.19 15.17 128.19 59.45 138.52 59.45 138.52 15.17 150.39 15.17 150.39 5.3 116.32 5.3 116.32 15.17"/>
        <rect class="cls-3" x="162.7" y="5.3" width="10.33" height="54.15"/>
        <path class="cls-1" d="M229.71,40.47l-2.7-6.03c-3.86-.48-7.71-1-11.52-1.58l1.86,4.23.65,1.52,3.59,8.35,5.43,12.49h11.2l-8.5-18.98Z"/>
        <path class="cls-1" d="M227.01,34.44c-3.86-.48-7.71-1-11.52-1.58l-3.99-9.11-3.6,7.92-2.13,4.64-.36.79-4.36,9.87-5.65,12.49h-11.23l11.84-25.19,2.05-4.36L211.86.58l15.15,33.86Z"/>
        <polygon class="cls-3" points="259.73 5.3 249.39 5.3 249.39 59.45 274.93 59.45 274.93 49.59 259.73 49.59 259.73 5.3"/>
        <rect class="cls-3" x="287.7" y="5.3" width="10.33" height="54.15"/>
        <path class="cls-3" d="M348.28,42.65c0,10.49-7.35,17.8-17.88,17.8-5.49,0-9.66-1.78-13.07-5.59-2.62-2.91-4.12-6.24-4.57-10.15-.03-.21-.06-.44-.08-.65l-.08-1.05,10.34-2.26v1.5c0,.63.06,1.29.19,1.92.29,1.45.89,2.84,1.73,3.94,1.37,1.73,3.33,2.62,5.78,2.62,4.3,0,7.32-3.07,7.32-7.46,0-.08,0-.15-.02-.21,3.43-.31,6.87-.65,10.32-1.02.02.19.02.39.02.6Z"/>
        <path class="cls-3" d="M348.27,42.05c-3.46.37-6.9.71-10.32,1.02-.08-3.94-2.84-5.85-5.99-7.22h-.02c-.23-.11-.44-.19-.66-.29l-4.98-2.1c-7.5-3.13-11.29-7.92-11.29-14.23,0-7.38,5.61-14.85,16.33-14.85,4.49,0,8.26,1.26,11.18,3.78,1.71,1.5,3.22,3.49,4.25,5.57l.52,1-8.56,5.01-.52-1.31c-.45-1.1-1.08-1.99-2-2.78-1.34-1.1-2.78-1.57-4.78-1.57-3.7,0-6.07,1.95-6.07,4.99,0,.79,0,3.23,4.81,5.15l5.2,2.1c5.11,2.07,8.63,4.69,10.68,7.97,1.42,2.25,2.15,4.81,2.23,7.75Z"/>
        <polygon class="cls-3" points="373.88 25.85 373.88 15.17 394.51 15.17 394.51 5.3 363.54 5.3 363.54 59.45 394.51 59.45 394.51 49.59 373.88 49.59 373.88 35.72 373.88 25.85"/>
      </g>
      <path class="cls-2" d="M393.62,26.09l-.08,9.14c-6.59,1.26-13.15,2.39-19.66,3.43-3.46.53-6.9,1.03-10.32,1.5-5.12.71-10.23,1.34-15.28,1.89-3.46.37-6.9.71-10.32,1.02-4.98.45-9.9.82-14.82,1.11-.13-.63-.19-1.29-.19-1.92v-1.5l-10.34,2.26.08,1.05c.02.21.05.44.08.65-4.94.19-9.84.31-14.72.36-3.47.05-6.9.05-10.34,0-1.91-.02-3.8-.05-5.7-.1-7.48-.21-14.91-.6-22.26-1.18-3.46-.24-6.91-.55-10.34-.89-6.38-.65-12.73-1.42-19-2.34-.23-.03-.45-.06-.68-.1-3.93-.55-7.84-1.16-11.71-1.86-4.1-.71-8.17-1.5-12.23-2.31l2.13-4.64c2.52.42,5.06.82,7.59,1.2,3.81.58,7.66,1.1,11.52,1.58,7.38.92,14.85,1.68,22.38,2.23,3.43.27,6.88.5,10.34.68,9.23.52,18.55.74,27.97.69,3.44,0,6.88-.05,10.34-.15,11.16-.27,22.47-.95,33.9-2.05h.02c4.67-.44,9.35-.95,14.09-1.55,5.8-.71,11.65-1.53,17.51-2.49,3.44-.55,6.88-1.13,10.32-1.76,6.56-1.18,13.13-2.49,19.74-3.96Z"/>
    </g>
  </g>
</svg>