<?xml version="1.0" encoding="UTF-8"?>
<svg id="Layer_2" data-name="Layer 2" xmlns="http://www.w3.org/2000/svg" xmlns:xlink="http://www.w3.org/1999/xlink" viewBox="0 0 251.71 87.04">
  <defs>
    <style>
      .cls-1 {
        fill: none;
      }

      .cls-2 {
        fill: #0b1331;
      }

      .cls-3 {
        fill: url(#linear-gradient);
      }

      .cls-4 {
        clip-path: url(#clippath);
      }
    </style>
    <clipPath id="clippath">
      <path class="cls-1" d="M94.36.58h-.01c-1.56-.46-3.19.43-3.65,1.99-.21.72-.12,1.45.17,2.08l-7.32,5.13c-2.17-2.82-5.56-4.65-9.4-4.65-4.67,0-8.7,2.71-10.63,6.64l-4.42-1.94c.46-1.26.58-2.67.26-4.08-.88-3.96-4.8-6.46-8.76-5.57-3.96.88-6.46,4.8-5.57,8.76.88,3.96,4.8,6.45,8.76,5.57,2.2-.49,3.94-1.92,4.91-3.77l4.42,1.94c-.52,1.33-.81,2.78-.81,4.29,0,2.55.81,4.91,2.19,6.84l-7.55,5.84s-.02-.02-.04-.03c-.05-.05-.1-.09-.16-.13-.1-.08-.2-.14-.31-.21-.05-.03-.11-.06-.16-.09-.12-.06-.25-.11-.38-.16-.03-.01-.06-.03-.09-.04h-.01s-.05-.01-.07-.02c-.12-.03-.24-.05-.37-.07-.09-.01-.17-.02-.26-.03-.04,0-.08-.01-.12-.01h-.02c-.06,0-.11.01-.16.02-.1,0-.2.01-.3.03-.1.02-.19.04-.29.06-.09.02-.17.05-.25.08-.1.04-.19.08-.28.12-.08.04-.15.08-.22.12-.09.05-.17.11-.25.17-.07.05-.14.11-.2.17-.07.07-.14.14-.21.21-.06.07-.12.13-.17.2-.06.08-.12.17-.17.26-.04.07-.08.15-.12.22-.05.1-.09.21-.13.31-.02.05-.04.09-.05.13-.01.03-.01.07-.02.1-.03.1-.04.21-.06.32-.01.1-.03.19-.03.29,0,.04-.01.08-.01.12,0,.06.01.11.02.16,0,.1.01.2.03.3.02.1.04.19.06.28.02.09.05.18.08.26.03.09.07.18.12.27.04.08.08.16.13.24.05.08.1.16.16.24.06.08.12.15.18.22.06.07.13.13.2.19.07.07.15.13.22.18.08.06.15.11.23.16.08.05.16.09.25.13.09.04.19.08.28.12.05.02.1.05.15.06h.01s.08.02.11.03c.08.02.17.03.26.05.13.02.25.03.38.04.02,0,.04,0,.07,0h.02s.06,0,.09,0c.14,0,.28-.02.42-.04.06-.01.11-.02.17-.04.13-.03.25-.07.37-.12.06-.02.12-.05.17-.07.11-.05.22-.11.33-.18.05-.03.11-.07.16-.11.1-.07.19-.15.28-.23.05-.05.09-.09.14-.14.08-.09.16-.18.23-.28.04-.06.08-.12.12-.19.06-.09.11-.19.16-.29.04-.08.07-.17.1-.25.02-.06.05-.11.07-.16h0s.01-.08.02-.13c.02-.09.04-.18.05-.28.02-.11.03-.21.03-.32,0-.04.01-.07.01-.11,0-.05-.01-.1-.02-.15,0-.1-.01-.21-.03-.31-.02-.1-.04-.19-.06-.29-.02-.08-.05-.17-.08-.25-.04-.1-.08-.2-.13-.3-.01-.03-.02-.06-.03-.08l7.54-5.83c2.17,2.57,5.42,4.21,9.05,4.21,1.46,0,2.86-.28,4.15-.76l2.14,4.48c-.67.42-1.24,1-1.62,1.76h0c-1.11,2.2-.23,4.88,1.97,5.99h0c2.2,1.11,4.88.23,5.99-1.97h0c1.11-2.2.23-4.88-1.97-5.99-1.12-.57-2.36-.61-3.46-.23l-2.12-4.43c4-1.9,6.77-5.97,6.77-10.69,0-2.35-.69-4.53-1.87-6.38l7.32-5.13c.34.34.75.61,1.24.75h.02c1.56.46,3.19-.43,3.65-1.99.46-1.56-.44-3.19-1.99-3.65Z"/>
    </clipPath>
    <linearGradient id="linear-gradient" x1="39.26" y1="17.87" x2="104.5" y2="17.87" gradientUnits="userSpaceOnUse">
      <stop offset=".4" stop-color="#022c46"/>
      <stop offset="1" stop-color="#7fcfd2"/>
    </linearGradient>
  </defs>
  <g id="Page_2" data-name="Page 2">
    <g>
      <path class="cls-2" d="M36.02,1.47c-.49.11-.98.5-1.45,1.19s-.71,1.89-.71,3.62v33.01L6.81,7.76v25.3c0,1.69.3,2.88.9,3.57.6.69,1.18,1.08,1.74,1.19H2.01c.49-.11.99-.5,1.51-1.19.51-.69.77-1.89.77-3.62V6.59c0-1.2-.4-2.29-1.21-3.27-.81-.99-1.83-1.6-3.06-1.85h6.55l24.77,28.89V6.28c0-2.71-.92-4.31-2.75-4.81h7.45Z"/>
      <path class="cls-2" d="M119.74,19.15c1.2-.76,2.1-1.74,2.72-2.96.62-1.21.92-2.49.92-3.83s-.29-2.67-.87-3.88c-.58-1.21-1.47-2.21-2.67-2.98-1.2-.77-2.66-1.16-4.38-1.16h-4.49v29.37c0,1.41.18,2.47.53,3.2.35.72.74,1.2,1.16,1.43.42.23.63.31.63.24h-8.4c0,.07.21-.02.63-.26.42-.25.8-.72,1.14-1.43.33-.7.5-1.76.5-3.17V7.29c0-1.44-.17-2.54-.5-3.3-.34-.76-.71-1.27-1.14-1.53s-.63-.34-.63-.24h10.46c2.75,0,5.01.45,6.79,1.35,1.78.9,3.06,2.06,3.86,3.49.79,1.43,1.19,2.98,1.19,4.67,0,1.41-.34,2.79-1,4.15-.67,1.36-1.63,2.54-2.88,3.54-1.25,1-2.7,1.7-4.36,2.09l-.84.16,9.3,11.83c1.23,1.37,2.25,2.43,3.06,3.17s1.4,1.23,1.77,1.48c.37.25.59.39.66.42h-6.18l-14.37-18.28h3.17c1.62,0,3.03-.38,4.23-1.14Z"/>
      <path class="cls-2" d="M159.09,38.54h-10.41c0,.11.21,0,.63-.29.42-.3.8-.85,1.14-1.66.33-.81.5-1.99.5-3.54V7.06c0-1.37-.17-2.42-.5-3.14-.34-.72-.71-1.21-1.14-1.45-.42-.25-.63-.33-.63-.26h10.35c5.39,0,9.65.88,12.78,2.64,2.78,1.55,4.93,3.65,6.44,6.29,1.51,2.64,2.27,5.62,2.27,8.93,0,3.59-.71,6.7-2.14,9.32-1.43,2.62-3.44,4.69-6.05,6.21-3.31,1.97-7.73,2.96-13.26,2.96ZM165.33,5c-1.76-.46-3.86-.69-6.29-.69h-4.28v32.12h4.28c2.89,0,5.26-.25,7.1-.74,1.85-.49,3.44-1.25,4.78-2.27,1.72-1.34,3.05-3.09,3.99-5.26.93-2.17,1.4-4.69,1.4-7.58,0-3.06-.54-5.75-1.61-8.06-1.07-2.31-2.54-4.08-4.41-5.31-1.55-1.02-3.21-1.76-4.97-2.22Z"/>
      <path class="cls-2" d="M196.96,38.3c.42-.26.81-.76,1.16-1.48.35-.72.53-1.79.53-3.2V7.11c0-1.41-.17-2.47-.5-3.2-.34-.72-.71-1.21-1.14-1.45-.42-.25-.63-.33-.63-.26h8.4c0-.07-.21.02-.63.26-.42.25-.81.73-1.16,1.45-.35.72-.53,1.79-.53,3.2v26.52c0,1.41.18,2.47.53,3.2.35.72.74,1.21,1.16,1.45.42.25.63.33.63.26h-8.45c0,.11.21.03.63-.24Z"/>
      <path class="cls-2" d="M245.56,38.08c-2.15.74-4.31,1.11-6.5,1.11-3.28,0-6.32-.76-9.14-2.27-2.82-1.51-5.08-3.7-6.79-6.55-1.71-2.85-2.56-6.2-2.56-10.04,0-3.59.78-6.81,2.35-9.67,1.57-2.85,3.8-5.08,6.71-6.68,2.91-1.6,6.29-2.4,10.17-2.4,4.12,0,7.78.9,10.99,2.69v5.86c-1.09-1.94-2.68-3.48-4.75-4.62-2.08-1.14-4.3-1.72-6.66-1.72-2.99,0-5.59.7-7.79,2.11-2.2,1.41-3.88,3.34-5.04,5.78-1.16,2.45-1.74,5.19-1.74,8.21,0,3.42.66,6.39,1.98,8.93,1.32,2.54,3.11,4.48,5.36,5.84,2.25,1.36,4.77,2.03,7.55,2.03,4.47,0,8.17-1.3,11.09-3.91v2.54c-1.34,1.09-3.08,2.01-5.23,2.75Z"/>
      <g class="cls-4">
        <rect class="cls-3" x="39.26" y="-14.75" width="65.24" height="65.24" rx="32.62" ry="32.62"/>
      </g>
    </g>
    <g>
      <g>
        <path class="cls-2" d="M16.13,62.92c.18-.03.37-.19.57-.47s.31-.82.31-1.6v-11.01l-5.77,13.32-5.86-13.3v10.88c0,.79.13,1.35.39,1.66.26.32.49.49.69.52h-3.26c.22-.03.46-.19.73-.5.26-.3.4-.86.4-1.68v-11.03c0-.7-.13-1.19-.37-1.45-.25-.26-.5-.43-.75-.48h2.97l5.4,12.31,5.31-12.31h2.66c-.19.03-.4.18-.62.46s-.33.79-.33,1.54v11.17c0,.73.11,1.24.33,1.52.22.28.43.43.62.46h-3.41Z"/>
        <path class="cls-2" d="M29.25,62.92s.09.01.26-.1c.18-.11.33-.33.47-.66s.21-.81.21-1.44v-10.81c0-.6-.07-1.06-.21-1.38-.14-.32-.3-.53-.47-.65-.18-.12-.26-.15-.26-.11h7.97v2.2c-.26-.88-1.06-1.32-2.38-1.32h-3.06v6.25h3.79c.29,0,.54-.05.75-.14.21-.09.36-.19.46-.3.1-.1.16-.17.18-.2v2.14s-.07-.1-.18-.2c-.1-.1-.25-.2-.45-.29-.2-.09-.44-.13-.74-.13h-3.81v6.25h3.44c.66,0,1.23-.14,1.71-.41.48-.27.82-.62,1.02-1.05l-.4,2.33h-8.3Z"/>
        <path class="cls-2" d="M48.59,49.02c-.43.25-.73.57-.93.95l.31-2.2h10.44l.31,2.2c-.19-.38-.5-.7-.93-.95-.43-.25-.96-.37-1.61-.37h-2.2v12.22c0,.59.07,1.03.22,1.34.15.31.31.51.49.62.18.1.26.13.26.09h-3.5s.09.01.26-.09c.18-.1.33-.3.47-.61.14-.3.21-.75.21-1.35v-12.22h-2.2c-.65,0-1.18.13-1.61.37Z"/>
        <path class="cls-2" d="M72.66,57.04l-1.41,3.5c-.22.54-.33.99-.33,1.34,0,.48.22.83.66,1.03h-3.15c.15,0,.36-.15.64-.44.28-.29.6-.87.97-1.74l5.75-13.68,5.7,13.74c.32.79.63,1.34.94,1.63.3.29.54.46.72.48h-3.66c.37-.18.55-.45.55-.81,0-.31-.12-.75-.35-1.32l-1.54-3.74h-5.48ZM77.79,56.13l-2.4-5.88-2.36,5.88h4.76Z"/>
        <path class="cls-2" d="M98.53,62.83c-.49.06-1.17.09-2.04.09h-3.63c.19-.04.4-.21.62-.5s.33-.84.33-1.66v-10.9c0-.76-.1-1.29-.31-1.58-.21-.29-.41-.46-.62-.52h3.61c.94,0,1.66.04,2.15.12.49.08.92.2,1.29.36.65.31,1.15.74,1.5,1.3.35.56.53,1.16.53,1.81,0,.98-.3,1.83-.89,2.54-.59.71-1.38,1.17-2.35,1.38.66.07,1.29.26,1.88.57s1.08.73,1.45,1.26.56,1.13.56,1.81c0,.94-.25,1.71-.75,2.3s-1.17,1.04-2.03,1.33c-.38.13-.82.23-1.31.29ZM98.27,48.81c-.34-.11-.79-.17-1.37-.17h-1.52v6.25h1.78c.53,0,.97-.08,1.32-.24.35-.16.66-.37.93-.64.28-.28.5-.62.66-1.01.16-.4.24-.8.24-1.21,0-.5-.09-.97-.28-1.41s-.46-.8-.83-1.08c-.29-.22-.61-.39-.95-.5ZM98.65,55.93c-.41-.1-.97-.15-1.67-.15h-1.59v6.25h2.09c1.06,0,1.88-.25,2.48-.75.59-.5.89-1.29.89-2.38,0-1.01-.39-1.84-1.17-2.49-.28-.22-.62-.38-1.03-.48Z"/>
        <path class="cls-2" d="M113.33,51.35c.67-1.22,1.61-2.17,2.82-2.84,1.21-.68,2.61-1.01,4.2-1.01,1.32,0,2.56.29,3.71.87s2.08,1.45,2.78,2.61c.7,1.16,1.05,2.55,1.05,4.18s-.33,2.94-1,4.16-1.61,2.17-2.82,2.84c-1.21.68-2.61,1.01-4.2,1.01-1.32,0-2.56-.29-3.71-.87s-2.08-1.45-2.78-2.61-1.05-2.56-1.05-4.18.33-2.94,1-4.16ZM125.28,51.87c-.55-1.08-1.31-1.92-2.27-2.53-.96-.61-2.04-.91-3.25-.91-1.1,0-2.08.28-2.94.84-.86.56-1.53,1.35-2.02,2.37-.49,1.02-.73,2.21-.73,3.56s.28,2.54.83,3.62,1.31,1.92,2.27,2.53c.96.61,2.04.91,3.25.91,1.1,0,2.08-.28,2.94-.84.86-.56,1.53-1.35,2.02-2.37.48-1.02.73-2.21.73-3.56s-.27-2.54-.83-3.62Z"/>
        <path class="cls-2" d="M138.32,48.48c-.14-.3-.3-.5-.47-.61-.18-.1-.26-.14-.26-.11h3.5s-.09,0-.26.11c-.18.1-.34.3-.48.61-.15.3-.22.75-.22,1.33v12.22h3.61c.66,0,1.23-.14,1.71-.41.48-.27.82-.62,1.02-1.05l-.4,2.33h-8.48s.09.01.26-.1c.18-.11.33-.33.47-.66s.21-.81.21-1.44v-10.9c0-.59-.07-1.03-.21-1.33Z"/>
        <path class="cls-2" d="M157.17,51.35c.67-1.22,1.61-2.17,2.82-2.84,1.21-.68,2.61-1.01,4.2-1.01,1.32,0,2.56.29,3.71.87,1.15.58,2.08,1.45,2.78,2.61.7,1.16,1.05,2.55,1.05,4.18s-.33,2.94-1,4.16-1.61,2.17-2.82,2.84c-1.21.68-2.61,1.01-4.2,1.01-1.32,0-2.56-.29-3.71-.87s-2.08-1.45-2.78-2.61c-.7-1.16-1.05-2.56-1.05-4.18s.33-2.94,1-4.16ZM169.13,51.87c-.55-1.08-1.31-1.92-2.27-2.53-.96-.61-2.04-.91-3.25-.91-1.1,0-2.08.28-2.94.84-.86.56-1.53,1.35-2.02,2.37-.49,1.02-.73,2.21-.73,3.56s.28,2.54.83,3.62,1.31,1.92,2.27,2.53c.96.61,2.04.91,3.25.91,1.1,0,2.08-.28,2.94-.84.86-.56,1.53-1.35,2.02-2.37.48-1.02.73-2.21.73-3.56s-.27-2.54-.83-3.62Z"/>
        <path class="cls-2" d="M194.36,62.92c.18-.03.37-.19.57-.47s.31-.82.31-1.6v-11.01l-5.77,13.32-5.86-13.3v10.88c0,.79.13,1.35.39,1.66.26.32.49.49.69.52h-3.26c.22-.03.46-.19.73-.5.26-.3.4-.86.4-1.68v-11.03c0-.7-.13-1.19-.37-1.45-.25-.26-.5-.43-.75-.48h2.97l5.4,12.31,5.31-12.31h2.66c-.19.03-.4.18-.62.46s-.33.79-.33,1.54v11.17c0,.73.11,1.24.33,1.52.22.28.43.43.62.46h-3.41Z"/>
        <path class="cls-2" d="M207.75,62.82c.18-.11.34-.32.48-.62.15-.3.22-.75.22-1.33v-11.06c0-.59-.07-1.03-.21-1.33-.14-.3-.3-.5-.47-.61-.18-.1-.26-.14-.26-.11h3.5s-.09,0-.26.11c-.18.1-.34.3-.48.61-.15.3-.22.75-.22,1.33v11.06c0,.59.07,1.03.22,1.33.15.3.31.5.48.61.18.1.26.14.26.11h-3.52s.09.01.26-.1Z"/>
        <path class="cls-2" d="M231.14,62.72c-.9.31-1.8.46-2.71.46-1.37,0-2.64-.32-3.81-.95-1.18-.63-2.12-1.54-2.83-2.73-.71-1.19-1.07-2.58-1.07-4.18,0-1.5.33-2.84.98-4.03.65-1.19,1.59-2.12,2.8-2.79,1.21-.67,2.63-1,4.24-1,1.72,0,3.25.37,4.58,1.12v2.44c-.46-.81-1.12-1.45-1.98-1.93s-1.79-.72-2.78-.72c-1.25,0-2.33.29-3.25.88-.92.59-1.62,1.39-2.1,2.41-.49,1.02-.73,2.16-.73,3.42,0,1.42.28,2.67.83,3.72s1.3,1.87,2.24,2.43c.94.57,1.99.85,3.15.85,1.86,0,3.41-.54,4.63-1.63v1.06c-.56.46-1.29.84-2.18,1.15Z"/>
        <path class="cls-2" d="M244.93,62.86c-.71-.21-1.34-.51-1.89-.89v-2.66c.38.98.97,1.73,1.75,2.24.78.51,1.6.76,2.46.76s1.56-.28,2.14-.85c.57-.56.86-1.27.86-2.1,0-.56-.11-1.03-.34-1.43-.23-.4-.59-.77-1.09-1.11s-1.2-.73-2.11-1.16c-1.28-.59-2.21-1.2-2.79-1.84-.58-.64-.87-1.41-.87-2.32,0-.78.19-1.47.56-2.08.37-.61.88-1.08,1.52-1.41.64-.33,1.34-.49,2.1-.49.66,0,1.31.09,1.94.27s1.22.44,1.76.78v2.38c-.35-.81-.88-1.44-1.6-1.88-.71-.45-1.44-.67-2.17-.67-.84,0-1.51.27-2.03.81-.51.54-.77,1.19-.77,1.94,0,.54.15,1.01.46,1.4s.69.72,1.13.98c.45.27,1.08.59,1.88.97.82.4,1.5.76,2.03,1.1s.97.78,1.32,1.32c.35.54.53,1.2.53,1.98,0,.88-.21,1.64-.63,2.29-.42.65-.98,1.14-1.67,1.49-.7.35-1.46.52-2.28.52-.76,0-1.5-.11-2.2-.32Z"/>
      </g>
      <g>
        <path class="cls-2" d="M56.62,86.73c-.68-.21-1.29-.51-1.83-.89v-2.65c.37.98.93,1.72,1.69,2.22.76.5,1.55.75,2.37.75s1.51-.28,2.06-.84c.55-.56.83-1.26.83-2.09,0-.55-.11-1.03-.33-1.42-.22-.39-.57-.76-1.05-1.1s-1.16-.72-2.04-1.15c-1.23-.58-2.13-1.19-2.69-1.83-.56-.63-.84-1.4-.84-2.31,0-.77.18-1.46.54-2.07.36-.6.85-1.07,1.46-1.4.62-.33,1.29-.49,2.03-.49.64,0,1.26.09,1.87.27s1.17.44,1.7.78v2.36c-.34-.8-.85-1.42-1.54-1.87-.69-.44-1.38-.67-2.09-.67-.81,0-1.46.27-1.95.81-.5.54-.74,1.18-.74,1.92,0,.54.15,1,.45,1.39s.66.71,1.09.97c.43.26,1.04.58,1.82.96.79.39,1.44.76,1.95,1.09s.93.77,1.27,1.31c.34.54.51,1.2.51,1.97,0,.87-.2,1.63-.61,2.27-.4.64-.94,1.13-1.61,1.48-.67.34-1.41.51-2.2.51-.74,0-1.44-.11-2.12-.32Z"/>
        <path class="cls-2" d="M76.86,75.3c.64-1.21,1.55-2.15,2.72-2.82,1.17-.67,2.52-1.01,4.04-1.01,1.27,0,2.47.29,3.58.86s2,1.44,2.68,2.59,1.01,2.54,1.01,4.15-.32,2.92-.97,4.13c-.64,1.21-1.55,2.15-2.72,2.82-1.17.67-2.52,1.01-4.04,1.01-1.27,0-2.47-.29-3.58-.86s-2-1.44-2.68-2.59c-.67-1.15-1.01-2.54-1.01-4.15s.32-2.92.97-4.13ZM88.39,75.81c-.53-1.07-1.26-1.91-2.19-2.51-.93-.6-1.97-.91-3.13-.91-1.06,0-2.01.28-2.83.83-.83.55-1.48,1.34-1.94,2.35-.47,1.01-.7,2.19-.7,3.53s.27,2.53.8,3.6,1.26,1.91,2.19,2.51c.93.61,1.97.91,3.13.91,1.06,0,2.01-.28,2.83-.83.83-.55,1.48-1.34,1.94-2.35.47-1.01.7-2.19.7-3.53s-.26-2.53-.8-3.6Z"/>
        <path class="cls-2" d="M113.56,86.58c-.86.31-1.73.46-2.61.46-1.32,0-2.54-.31-3.67-.94-1.13-.63-2.04-1.53-2.73-2.71-.69-1.18-1.03-2.57-1.03-4.15,0-1.49.31-2.82.94-4,.63-1.18,1.53-2.1,2.7-2.77,1.17-.66,2.53-.99,4.09-.99,1.66,0,3.13.37,4.42,1.11v2.43c-.44-.8-1.08-1.44-1.91-1.91s-1.73-.71-2.68-.71c-1.2,0-2.25.29-3.13.87-.89.58-1.56,1.38-2.03,2.39-.47,1.01-.7,2.15-.7,3.4,0,1.41.27,2.65.8,3.7.53,1.05,1.25,1.85,2.15,2.42.91.56,1.92.84,3.04.84,1.8,0,3.28-.54,4.46-1.62v1.05c-.54.45-1.24.83-2.1,1.14Z"/>
        <path class="cls-2" d="M129.4,86.68c.17-.11.33-.31.47-.61.14-.3.21-.74.21-1.32v-10.98c0-.58-.07-1.02-.2-1.32-.13-.3-.29-.5-.46-.6-.17-.1-.25-.14-.25-.11h3.38s-.08,0-.25.11c-.17.1-.33.3-.47.6-.14.3-.21.74-.21,1.32v10.98c0,.58.07,1.02.21,1.32.14.3.3.5.47.6.17.1.25.14.25.11h-3.4s.09.01.25-.1Z"/>
        <path class="cls-2" d="M146.05,86.78s.09.01.25-.1c.17-.11.32-.33.46-.66s.2-.8.2-1.43v-10.73c0-.6-.07-1.05-.2-1.37-.13-.31-.29-.53-.46-.64-.17-.12-.25-.15-.25-.11h7.69v2.19c-.25-.87-1.02-1.31-2.29-1.31h-2.95v6.21h3.65c.28,0,.52-.05.72-.14.2-.09.35-.19.45-.29.1-.1.16-.17.17-.2v2.12s-.07-.09-.17-.2c-.1-.1-.24-.2-.44-.28-.19-.09-.43-.13-.71-.13h-3.67v6.21h3.31c.64,0,1.19-.13,1.65-.4.46-.27.79-.62.99-1.04l-.38,2.32h-8.01Z"/>
        <path class="cls-2" d="M167.3,72.98c-.41.25-.71.56-.89.94l.3-2.19h10.06l.3,2.19c-.18-.38-.48-.69-.89-.94-.41-.25-.93-.37-1.55-.37h-2.12v12.14c0,.58.07,1.03.21,1.33.14.31.3.51.47.61.17.1.25.13.25.09h-3.38s.09.01.25-.09c.17-.1.32-.3.46-.6.13-.3.2-.75.2-1.34v-12.14h-2.12c-.62,0-1.14.12-1.55.37Z"/>
        <path class="cls-2" d="M200.55,71.74c-.14.03-.37.19-.68.48-.31.29-.69.83-1.13,1.62l-3.67,6.49v4.42c0,.74.1,1.26.3,1.55.2.29.38.45.55.48h-3.23c.17-.03.35-.19.55-.47.2-.28.3-.8.3-1.56v-4.44l-3.63-6.49c-.42-.76-.79-1.28-1.1-1.56-.31-.28-.56-.46-.74-.51h3.57c-.35.07-.53.31-.53.7,0,.13.04.29.13.47.09.18.22.44.4.78l3.08,5.58,3.08-5.49c.24-.41.36-.82.36-1.25,0-.28-.08-.47-.24-.58-.16-.11-.32-.18-.48-.21h3.12Z"/>
      </g>
    </g>
  </g>
</svg>