<?xml version="1.0" encoding="UTF-8"?>
<svg id="Layer_2" data-name="Layer 2" xmlns="http://www.w3.org/2000/svg" viewBox="0 0 1200 308.73">
  <defs>
    <style>
      .cls-1 {
        fill: #fff;
      }
    </style>
  </defs>
  <g id="Layer_1-2" data-name="Layer 1">
    <path class="cls-1" d="M132.12,223.05c-20.89,0-37.82,16.93-37.82,37.82s16.93,37.82,37.82,37.82,37.82-16.93,37.82-37.82-16.93-37.82-37.82-37.82M351.27,231.53c-34.26,0-43.25-26.84-35.91-45.17h0c3.97-9.89,6.17-20.68,6.17-31.99s-2.2-22.1-6.17-31.99h0c-7.3-18.23,1.53-45.17,35.91-45.17,21.32,0,38.6-17.28,38.6-38.6S372.59,0,351.27,0s-38.6,17.28-38.6,38.6c0,34.26-26.84,43.25-45.17,35.91h0c-9.89-3.96-20.68-6.17-31.99-6.17s-22.1,2.2-31.99,6.17h0c-18.23,7.3-45.17-1.54-45.17-35.91,0-21.32-17.28-38.6-38.6-38.6s-38.6,17.28-38.6,38.6,17.28,38.6,38.6,38.6c32.28,0,44.8,23.31,37.72,38.99-8.63,19.11-27.12,29.12-47.71,31.07-2.57.25-5.18.36-7.8.36-2.62,0-5.27-.13-7.91-.39-2.64-.25-5.29-.62-7.92-1.11s-5.26-1.1-7.85-1.83c-1.3-.36-2.59-.76-3.87-1.18-3.84-1.27-7.6-2.8-11.24-4.59-2.42-1.19-4.78-2.5-7.07-3.91-2.29-1.42-4.51-2.94-6.63-4.58v.04c-1.3-1-2.68-1.9-4.12-2.69-1.45-.79-2.97-1.47-4.54-2.02-1.58-.55-3.21-.98-4.9-1.27-1.68-.29-3.41-.44-5.18-.44-5.3,0-10.29,1.34-14.64,3.71-1.74.95-3.38,2.06-4.9,3.31-2.28,1.88-4.28,4.08-5.93,6.53-3.31,4.9-5.25,10.81-5.25,17.18s1.93,12.27,5.25,17.18c2.21,3.27,5.03,6.09,8.3,8.3,4.9,3.31,10.81,5.25,17.18,5.25,4.41,0,8.6-.94,12.39-2.62.76-.34,1.5-.7,2.22-1.1,1.45-.79,2.83-1.69,4.12-2.69v.04c1.16-.89,2.34-1.75,3.53-2.56.4-.27.81-.52,1.21-.78.8-.53,1.6-1.06,2.41-1.55.49-.3.99-.57,1.49-.86.73-.42,1.47-.85,2.21-1.25.53-.29,1.08-.54,1.61-.82.72-.36,1.44-.73,2.16-1.07.56-.26,1.13-.5,1.69-.74.71-.31,1.43-.63,2.15-.91.58-.23,1.17-.44,1.75-.66.71-.27,1.43-.53,2.14-.77.6-.2,1.2-.38,1.8-.57,31.78-9.87,69.06,1.61,88.53,33.17,15.13,24.63,42.32,41.06,73.34,41.06,11.31,0,22.1-2.2,31.99-6.17h0c18.23-7.3,45.17,1.53,45.17,35.91,0,21.32,17.28,38.6,38.6,38.6s38.6-17.28,38.6-38.6-17.28-38.6-38.6-38.6M235.5,180.03c-14.15,0-25.67-11.51-25.67-25.67s11.51-25.67,25.67-25.67,25.67,11.51,25.67,25.67-11.51,25.67-25.67,25.67"/>
    <polygon class="cls-1" points="520.36 44.68 496.29 44.68 496.29 132.91 478.02 132.91 478.02 44.68 453.96 44.68 453.96 27.74 520.36 27.74 520.36 44.68"/>
    <path class="cls-1" d="M533.57,105.28V27.74h18.27v77.69c0,7.87,4.31,12.63,13.96,12.63s14.11-4.75,14.11-12.63V27.74h18.27v77.54c0,17.68-12.03,29.71-32.23,29.71s-32.38-12.03-32.38-29.71"/>
    <path class="cls-1" d="M665.92,132.91l-13.67-40.55h-15.74v40.55h-18.27V27.74h33.27c18.27,0,30.3,11.14,30.3,27.48v9.65c0,9.95-4.46,17.97-12.03,22.73l15.3,45.3h-19.16ZM636.51,75.43h16.04c7.28,0,11.14-3.56,11.14-9.95v-10.84c0-6.39-3.86-9.95-10.99-9.95h-16.19v30.75Z"/>
    <polygon class="cls-1" points="749.85 132.91 721.77 83 721.77 132.91 703.5 132.91 703.5 27.74 721.77 27.74 721.77 74.68 747.77 27.74 767.97 27.74 741.83 78.99 770.2 132.91 749.85 132.91"/>
    <path class="cls-1" d="M785.64,105.28V27.74h18.27v77.69c0,7.87,4.31,12.63,13.96,12.63s14.11-4.75,14.11-12.63V27.74h18.27v77.54c0,17.68-12.03,29.71-32.23,29.71s-32.38-12.03-32.38-29.71"/>
    <path class="cls-1" d="M527.32,253.17v7.24c0,17.1-12.63,28.96-30.5,28.96h-35.74v-109.06h33.12c17.87,0,30.65,10.32,30.65,26.19v7.55c0,7.09-3.23,13.71-9.09,18.18,7.39,4.62,11.55,12.48,11.55,20.95M480.03,197.26v27.88h15.25c6.47,0,10.63-3.7,10.63-10.94v-7.24c0-6.16-4.16-9.7-10.63-9.7h-15.25ZM508.37,253.17c0-6.93-4-11.25-10.63-11.25h-17.71v30.5h17.71c6.62,0,10.63-4.62,10.63-11.4v-7.86Z"/>
    <rect class="cls-1" x="546.88" y="180.31" width="18.95" height="109.06"/>
    <path class="cls-1" d="M586.47,260.72v-51.45c0-18.49,13.09-31.12,34.81-31.12s34.81,12.63,34.81,31.12v51.45c0,18.33-13.09,30.81-34.81,30.81s-34.81-12.48-34.81-30.81M637.15,260.88v-51.91c0-8.32-4.47-13.25-15.87-13.25s-15.87,4.93-15.87,13.25v51.91c0,8.16,4.47,13.09,15.87,13.09s15.87-4.93,15.87-13.09"/>
    <path class="cls-1" d="M674.58,258.41v-4.31h18.95v6.47c0,9.24,6.62,13.86,15.87,13.86,8.62,0,15.1-4.78,15.1-13.56,0-23.11-47.75-16.94-47.75-52.07,0-18.02,11.55-30.65,32.35-30.65s32.81,11.86,32.81,29.73v6.47h-18.95v-7.86c0-6.47-5.55-10.78-13.86-10.78s-13.4,4.31-13.4,12.01c0,19.56,47.75,14.02,47.75,51.3.15,19.25-12.63,32.5-34.35,32.5s-34.51-13.09-34.51-33.12"/>
    <path class="cls-1" d="M762.07,260.57v-51.6c0-18.33,13.25-30.81,34.66-30.81s34.66,12.48,34.66,30.81v12.48h-19.1v-12.63c0-8.16-4.93-13.09-15.4-13.09s-15.87,4.93-15.87,13.09v52.07c0,8.16,5.08,13.09,15.71,13.09s15.56-4.93,15.56-13.09v-12.79h19.1v12.48c0,18.48-13.09,30.96-34.51,30.96s-34.81-12.48-34.81-30.96"/>
    <rect class="cls-1" x="852.34" y="180.31" width="18.95" height="109.06"/>
    <polygon class="cls-1" points="912.57 197.87 912.57 227.3 941.68 227.3 941.68 244.86 912.57 244.86 912.57 271.81 948.15 271.81 948.15 289.37 893.62 289.37 893.62 180.31 948.15 180.31 948.15 197.87 912.57 197.87"/>
    <polygon class="cls-1" points="1034.56 180.31 1034.56 289.37 1018.08 289.37 984.19 216.98 984.19 289.37 967.86 289.37 967.86 180.31 984.19 180.31 1018.08 252.87 1018.08 180.31 1034.56 180.31"/>
    <path class="cls-1" d="M1055.2,260.57v-51.6c0-18.33,13.25-30.81,34.66-30.81s34.66,12.48,34.66,30.81v12.48h-19.1v-12.63c0-8.16-4.93-13.09-15.41-13.09s-15.87,4.93-15.87,13.09v52.07c0,8.16,5.08,13.09,15.71,13.09s15.56-4.93,15.56-13.09v-12.79h19.1v12.48c0,18.48-13.09,30.96-34.51,30.96s-34.81-12.48-34.81-30.96"/>
    <polygon class="cls-1" points="1164.42 197.87 1164.42 227.3 1193.53 227.3 1193.53 244.86 1164.42 244.86 1164.42 271.81 1200 271.81 1200 289.37 1145.47 289.37 1145.47 180.31 1200 180.31 1200 197.87 1164.42 197.87"/>
  </g>
</svg>