<?xml version="1.0" encoding="UTF-8"?>
<svg id="Layer_2" data-name="Layer 2" xmlns="http://www.w3.org/2000/svg" viewBox="0 0 307.97 86.04">
  <defs>
    <style>
      .cls-1 {
        fill: #fff;
      }
    </style>
  </defs>
  <g id="Layer_1-2" data-name="Layer 1">
    <g>
      <path class="cls-1" d="M36.61,86.04l-.06-3.56c0-.26-.15-.51-.39-.64-.89-.49-1.41-1.35-1.41-2.31s.5-1.78,1.33-2.28c.24-.14.38-.4.38-.67-.11-6.01-.23-10.77-.46-14.52-.13-2.11-.29-3.73-.48-4.95-.24-1.43-.45-2.26-.92-2.82-.54-.61-1.16-.92-1.8-.92-.87.02-1.45.53-1.8.84-.53.48-1.17.74-1.83.74-.63,0-1.22-.24-1.67-.66-.46-.44-.71-1.03-.71-1.66,0-.1,0-.2.02-.3.03-.27-.08-.54-.3-.7-.14-.1-.31-.16-.48-.16-.09,0-.18.02-.27.05-.28.1-.57.15-.85.15-.75,0-1.44-.33-1.9-.88-.34-.42-.52-.92-.52-1.45,0-.4.1-.79.3-1.13.13-.24.13-.52,0-.75-.13-.23-.38-.38-.66-.38-.88-.03-1.67-.51-2.07-1.25-.18-.33-.27-.69-.27-1.07,0-.6.25-1.2.69-1.64.19-.19.26-.45.21-.7-.06-.25-.23-.45-.47-.54-.94-.36-1.55-1.22-1.54-2.18,0-.79.41-1.52,1.1-1.96.23-.15.37-.41.35-.67,0-.26-.16-.5-.4-.63-.79-.43-1.26-1.19-1.26-2.05,0-.76.38-1.46,1.03-1.9.18-.12.31-.33.33-.56.02-.23-.07-.45-.24-.61-.47-.44-.74-1.06-.74-1.69,0-.36.09-.71.25-1.02.41-.8,1.25-1.3,2.2-1.3.29,0,.55-.16.69-.41.14-.27.11-.58-.07-.81-.29-.4-.46-.9-.46-1.38,0-.35.08-.7.25-1.02.35-.69,1.03-1.16,1.81-1.28.21-.03.39-.14.52-.31.12-.16.17-.36.14-.56-.05-.37-.37-.64-.76-.64-.04,0-.08,0-.13.01-.15.02-.31.06-.48.1l-6.32-16.32c.22-1.11.98-2.14,2.04-2.76.67-.39,1.4-.59,2.11-.59.63,0,1.22.16,1.71.46l.16,1c1.02,6.31,3.42,21.08,3.92,23.37.07.33.11.62.11.86,0,.6-.22.94-.7,1.7l-.13.21c-.68,1.09-1.41,2.43-2.15,4.81-.41,1.33-.62,2.79-.62,4.35.02,5.18,2.14,10.11,5.29,12.26,1.26.84,2.37,1.25,3.41,1.25,1.17,0,2.19-.59,2.82-1.61.57-.91.86-2.14.86-3.63,0-.15,0-.29,0-.45-.04-.99-.05-2.36-.06-3.94-.01-1.6-.03-3.41-.08-5.14-.09-2.93-.22-5.92-.74-7.48v-.02s-.05-.14-.05-.14c-.02-.06-.06-.14-.09-.21v-.05l-.04-.04c-.59-1.1-1.73-1.91-3.48-2.47-.02-.3-.03-.59-.03-.89,0-.66.05-1.35.15-2.06,1.25-1.41,3.83-2.32,6.61-2.32h.08c1.66,0,3.31.34,4.64.95.07.05.15.08.23.1.71.36,1.31.79,1.73,1.26.1.69.15,1.4.15,2.06,0,.27-.01.57-.03.89-1.75.57-2.89,1.38-3.48,2.48l-.02.03v.03c-.04.05-.08.15-.13.26-.01.04-.02.08-.03.12-.48,1.38-.64,3.9-.75,7.5-.05,1.74-.06,3.55-.08,5.15-.01,1.58-.03,2.95-.06,3.94,0,.15-.01.29-.01.43,0,1.5.29,2.73.86,3.64.62,1.02,1.65,1.61,2.81,1.61,1.05,0,2.19-.43,3.41-1.25,3.15-2.15,5.28-7.08,5.29-12.26,0-1.56-.21-3.03-.61-4.35-.72-2.35-1.46-3.7-2.15-4.81l-.15-.23c-.47-.74-.68-1.08-.68-1.68,0-.23.04-.51.11-.86.53-2.41,3.19-18.84,4.06-24.24l.02-.13c.49-.3,1.08-.46,1.71-.46.72,0,1.45.21,2.11.59,1.06.61,1.82,1.64,2.05,2.76l-6.33,16.32c-.16-.05-.32-.08-.48-.11-.04,0-.08,0-.12,0-.39,0-.71.27-.77.65-.03.2.02.4.14.57.13.17.31.27.52.3.78.12,1.45.6,1.81,1.28.16.32.25.66.25,1.01,0,.49-.17.98-.47,1.38l-.06.08v.05c-.06.16-.09.29-.08.39v.02s.04.15.04.15c.09.27.34.47.63.51h.09s.04,0,.09,0c.88.02,1.71.52,2.11,1.3.17.31.25.65.25,1.02,0,.63-.27,1.25-.74,1.68-.17.16-.26.39-.23.62.01.22.13.43.33.56.64.44,1.02,1.12,1.03,1.86v.04c0,.84-.48,1.62-1.26,2.04-.24.12-.39.37-.4.64-.01.26.12.52.36.67.68.43,1.09,1.16,1.1,1.95h0c0,.97-.6,1.83-1.54,2.19-.25.1-.42.3-.48.55-.05.24.02.5.2.69.45.45.69,1.03.69,1.64,0,.38-.09.74-.27,1.07-.4.73-1.2,1.21-2.09,1.25-.26,0-.51.15-.64.38-.14.24-.14.52-.01.75.2.34.3.73.3,1.13,0,.53-.18,1.03-.52,1.45-.46.56-1.15.88-1.9.88-.29,0-.58-.05-.86-.14-.07-.03-.17-.05-.26-.05-.17,0-.34.06-.47.16-.21.15-.33.42-.3.69.01.11.02.21.02.3,0,.64-.25,1.23-.71,1.66-.45.43-1.04.66-1.67.66-.66,0-1.3-.25-1.81-.71-.38-.34-.97-.85-1.82-.87-.64,0-1.26.32-1.79.92-.47.57-.69,1.43-.92,2.82-.62,3.95-.81,11.78-.94,19.47,0,.28.14.53.38.67.84.49,1.34,1.35,1.34,2.28s-.54,1.83-1.41,2.31c-.24.13-.4.39-.4.66l-.06,3.55h-1.81ZM45.99,67.26c-.55,0-1.08-.13-1.54-.37l-.49-10.88c.6.31,1.24.47,1.9.47.05,0,.1,0,.15,0l2.12,9.94c-.43.48-1.1.78-1.86.84-.09,0-.18.01-.27.01ZM29.03,67.26c-.09,0-.18,0-.28-.01-.75-.06-1.42-.37-1.86-.85l2.12-9.94s.09,0,.14,0c.64,0,1.3-.16,1.9-.47l-.49,10.89c-.45.24-.99.37-1.54.37ZM50.85,66.58c-.42,0-.82-.08-1.16-.24l-2.18-10.23c.42-.19.78-.43,1.1-.74.09-.09.18-.18.27-.29l4.58,10.19c-.29.44-.75.8-1.29,1.03-.42.17-.87.27-1.31.27ZM24.16,66.58c-.44,0-.89-.09-1.3-.27-.55-.23-1-.59-1.3-1.03l4.57-10.2c.09.11.18.2.27.29.32.31.68.55,1.09.73l-2.18,10.23c-.34.16-.74.24-1.16.24ZM19.74,64.49c-.75,0-1.52-.25-2.16-.71-.47-.34-.84-.77-1.08-1.24l6.73-9.72c.54.25,1.11.38,1.67.38.13,0,.25,0,.37-.02,0,.02,0,.03,0,.05,0,.01-5.04,11.23-5.04,11.23-.16.03-.33.04-.5.04ZM55.27,64.49c-.17,0-.33-.01-.49-.04l-5.03-11.21s0-.02-.01-.02c0-.01,0-.03,0-.04.13.01.25.02.37.02.56,0,1.14-.13,1.68-.38l6.73,9.72c-.23.47-.6.89-1.08,1.24-.64.46-1.41.71-2.17.71ZM53.05,51.92c.06-.06.12-.12.17-.18.29-.36.52-.76.66-1.19l9.17,8.74c-.16.49-.45.94-.85,1.33-.66.65-1.53,1.04-2.4,1.06l-6.75-9.76ZM15.22,61.68c-.87-.03-1.74-.41-2.4-1.06-.4-.39-.69-.84-.85-1.33l9.17-8.74c.15.43.37.84.66,1.19.06.07.11.13.17.18l-6.75,9.76ZM53.99,48.52s-.01-.06-.02-.09c.58-.17,1.11-.47,1.57-.89l11.53,7.5c-.03.56-.22,1.13-.57,1.64-.56.83-1.42,1.4-2.33,1.55l-10.19-9.72ZM10.84,58.23c-.91-.15-1.77-.72-2.32-1.55-.35-.51-.54-1.08-.57-1.64l11.53-7.5c.45.41.99.72,1.57.89,0,.03-.01.06-.02.09l-10.19,9.71ZM7.11,53.76c-.81-.29-1.52-.94-1.93-1.77-.39-.79-.45-1.64-.19-2.34l13.28-5.45c-.03.19-.04.37-.04.56,0,.54.11,1.06.34,1.55l-11.45,7.45ZM56.47,46.29c.22-.49.34-1,.34-1.54,0-.18-.02-.37-.04-.56l13.28,5.45c.26.71.2,1.55-.19,2.34-.41.83-1.12,1.48-1.93,1.77l-11.45-7.46ZM56.66,42.5c.42-.38.75-.86.97-1.38l14.96,2.79c.34.63.43,1.4.24,2.18-.26,1.04-.96,1.91-1.84,2.29l-14.32-5.89ZM4.03,48.39c-.88-.39-1.57-1.26-1.83-2.29-.19-.78-.11-1.55.24-2.19l14.95-2.78c.22.52.55.99.97,1.37l-14.33,5.89ZM1.97,42.44c-.89-.6-1.51-1.65-1.66-2.82-.12-.99.12-1.95.67-2.64l16.64.81c-.33.56-.51,1.19-.53,1.84l-15.13,2.81ZM57.92,39.63c-.01-.65-.19-1.27-.52-1.84l16.65-.81c.54.69.78,1.65.66,2.64-.14,1.17-.76,2.22-1.66,2.82l-15.13-2.81ZM1.03,35.45C.37,34.74,0,33.74,0,32.71c0-1.12.45-2.13,1.2-2.75l15.7,4.59c.03.6.2,1.19.5,1.71l-16.36-.8ZM57.62,36.26c.31-.53.48-1.12.5-1.74l15.7-4.56c.74.61,1.19,1.63,1.2,2.75,0,1.04-.37,2.03-1.03,2.74l-16.37.81ZM1.35,28.41c-.62-.93-.79-2.15-.43-3.29.3-.97.94-1.75,1.77-2.16l15.24,8.82c-.32.34-.58.76-.76,1.21L1.35,28.41ZM57.84,33c-.18-.46-.44-.87-.76-1.22l15.24-8.82c.83.41,1.47,1.19,1.77,2.16.35,1.13.19,2.36-.44,3.29l-15.82,4.59ZM57.74,29.61c0-.6-.14-1.17-.41-1.7-.03-.06-.06-.11-.1-.16l11.89-11.37c1.02.23,1.89.98,2.37,2.03.49,1.06.49,2.27.01,3.27l-13.76,7.97s0-.02,0-.03ZM3.52,21.67c-.48-.99-.48-2.2,0-3.27.48-1.04,1.36-1.79,2.37-2.03l11.89,11.37c-.04.05-.07.1-.1.16-.27.53-.41,1.11-.41,1.71,0,0,0,.02,0,.02l-13.76-7.97ZM6.86,15.17c-.3-1.01-.15-2.13.43-3.08.59-.99,1.55-1.64,2.59-1.77l10.05,15.69c-.4.14-.77.34-1.11.6L6.86,15.17ZM56.2,26.6c-.34-.26-.71-.46-1.11-.6l10.05-15.69c1.04.13,2,.78,2.59,1.77.57.95.72,2.07.43,3.08l-11.96,11.44ZM10.96,9.15c.04-.87.39-1.73.99-2.42.72-.84,1.72-1.32,2.72-1.32.14,0,.27,0,.41.03l6.3,16.25c-.46.35-.83.79-1.09,1.3-.07.14-.13.28-.18.43l-9.14-14.27ZM54.91,23.42c-.05-.14-.11-.28-.18-.42-.26-.51-.63-.95-1.09-1.31l6.3-16.25c.14-.02.27-.03.41-.03,1.01,0,2,.48,2.72,1.32.59.69.94,1.54.99,2.42l-9.14,14.27ZM32.33,20.64c-.59-.71-1.56-2.21-1.56-4.35,0-.29.02-.58.05-.85.18-1.58,1.23-3.01,2.38-4.45l.23-.3c1.04-1.33,2.12-2.7,2.14-4.34,0-.19-.01-.35-.04-.51-.09-.62-.13-1.18-.13-1.68.01-1.7.46-3.05,1.4-4.16,0,.12,0,.24,0,.36.01,2.31,1.12,4.5,2.12,6.18-.49.7-1.01,1.38-1.57,2.09-.44.57-.88,1.14-1.31,1.73-1.4,1.95-2.76,4.06-2.77,6.67,0,.99.22,2.02.65,3.06-.55.15-1.09.34-1.6.56ZM42.41,20.53c-1.46-.59-3.15-.91-4.9-.91-.69,0-1.38.05-2.04.15-.42-.94-.64-1.87-.64-2.74,0-2.17,1.22-4.05,2.48-5.78.4-.56.85-1.13,1.28-1.68l.46-.59c.35-.46.71-.93,1.05-1.4.19-.27.39-.55.57-.84.23-.36.44-.71.63-1.07.27-.5.49-.98.67-1.47.21.91.32,1.82.32,2.73,0,.33-.01.64-.04.94-.03.48-.13.95-.28,1.47-.1.34-.22.67-.38,1.03-.2.46-.43.9-.62,1.23-.18.32-.36.64-.55.95-.18.3-.36.59-.53.86-.7,1.12-1.31,2.08-1.34,3.06,0,.14.01.28.05.41.13.51.31,1.19,1.16,1.29.48-.02.81-.24,1.02-.68.13-.29.2-.61.2-.96,0-.46-.11-.94-.32-1.4.31-.54.71-1.18,1.1-1.8.22-.37.47-.79.72-1.24.9,1.64,1.36,3.16,1.35,4.55,0,1.41-.46,2.69-1.4,3.89ZM32.46,9.43c.17-.8.3-1.71.3-2.67s-.13-1.92-.4-2.86c.89.84,1.43,1.79,1.62,2.82h0c-.14.81-.75,1.71-1.52,2.71Z"/>
      <g>
        <path class="cls-1" d="M117.42,22.46c0,6.05-4,9.93-10.83,9.93s-10.83-3.89-10.83-9.93V5.97h5.54v15.95c0,3.38,1.91,5.4,5.29,5.4s5.29-2.02,5.29-5.4V5.97h5.54v16.49Z"/>
        <path class="cls-1" d="M144.57,32.29l-14.22-13.64-1.69-1.48v14.72h-5.44V5.58h.22l14.18,13.64,1.66,1.48V5.97h5.47v26.31h-.18Z"/>
        <path class="cls-1" d="M150.9,31.89V5.97h5.54v25.92h-5.54Z"/>
        <path class="cls-1" d="M172.32,32.29h-.22l-12.78-26.31h6.05l3.38,7.49c1.33,2.99,2.52,5.54,3.42,8.06.76-1.84,2.34-5.51,3.49-8.06l3.38-7.49h6.01l-12.74,26.31Z"/>
        <path class="cls-1" d="M187.98,31.89V5.97h16.67v4.64h-11.12v5.9h9.43v4.46h-9.43v6.26h11.66v4.64h-17.21Z"/>
        <path class="cls-1" d="M218.8,5.97c6.01,0,10.01,2.99,10.01,8.53,0,3.78-2.12,6.26-4.93,7.38l5.43,10.01h-5.87l-4.57-9.07h-3.74v9.07h-5.44V5.97h9.11ZM215.13,10.62v7.74h3.96c2.45,0,4.14-1.22,4.14-3.85s-1.76-3.89-4.28-3.89h-3.82Z"/>
        <path class="cls-1" d="M232.55,30.92v-5.33c1.8.94,4.17,1.73,6.51,1.87.83.04,1.62,0,2.3-.14,1.98-.29,3.13-1.04,3.13-2.3,0-1.73-1.55-2.63-5.11-3.92-4.54-1.66-7.2-3.56-7.2-8.06s3.82-7.56,9.39-7.56c2.59,0,5.15.58,6.77,1.3v5.11c-1.51-.9-3.96-1.58-6.33-1.58-2.66,0-4.39,1.04-4.39,2.7,0,1.51,1.4,2.56,4.93,3.89,4.54,1.76,7.34,3.67,7.34,8.03,0,4.68-3.53,7.49-9.65,7.49-2.95,0-5.83-.65-7.7-1.48Z"/>
        <path class="cls-1" d="M254.22,31.89V5.97h5.54v25.92h-5.54Z"/>
        <path class="cls-1" d="M276.25,10.62v21.27h-5.54V10.62h-7.23v-4.64h20.05v4.64h-7.27Z"/>
        <path class="cls-1" d="M289.83,5.97l5.94,10.62,5.94-10.62h6.26l-9.43,15.87v10.04h-5.54v-10.04l-9.4-15.87h6.23Z"/>
        <path class="cls-1" d="M108.03,40.32c7.81,0,13.57,5.98,13.57,13.46s-5.72,13.46-13.57,13.46-13.57-5.9-13.57-13.46,5.72-13.46,13.57-13.46ZM108.03,62.17c4.68,0,7.99-3.74,7.99-8.39s-3.31-8.39-7.99-8.39-7.99,3.78-7.99,8.39,3.31,8.39,7.99,8.39Z"/>
        <path class="cls-1" d="M131.68,45.47v6.19h8.64v4.57h-8.64v10.51h-5.54v-25.92h15.8v4.64h-10.26Z"/>
        <path class="cls-1" d="M163.5,45.47v21.27h-5.54v-21.27h-7.23v-4.64h20.05v4.64h-7.27Z"/>
        <path class="cls-1" d="M195.79,57.31c0,6.05-4,9.93-10.83,9.93s-10.83-3.89-10.83-9.93v-16.49h5.54v15.95c0,3.38,1.91,5.4,5.29,5.4s5.29-2.02,5.29-5.4v-15.95h5.54v16.49Z"/>
        <path class="cls-1" d="M210.7,40.82c6.01,0,10.01,2.99,10.01,8.53,0,3.78-2.12,6.26-4.93,7.38l5.43,10.01h-5.87l-4.57-9.07h-3.74v9.07h-5.44v-25.92h9.11ZM207.03,45.47v7.74h3.96c2.45,0,4.14-1.22,4.14-3.85s-1.76-3.89-4.28-3.89h-3.82Z"/>
        <path class="cls-1" d="M231.18,53.06l10.08-12.24h6.55l-9.18,10.83,9.32,15.08h-6.19l-6.88-11.52-3.71,4.21v7.31h-5.54v-25.92h5.54v12.24Z"/>
        <path class="cls-1" d="M272.51,57.31c0,6.05-4,9.93-10.83,9.93s-10.83-3.89-10.83-9.93v-16.49h5.54v15.95c0,3.38,1.91,5.4,5.29,5.4s5.29-2.02,5.29-5.4v-15.95h5.54v16.49Z"/>
      </g>
    </g>
  </g>
</svg>